<?xml version="1.0" encoding="UTF-8"?>
<!DOCTYPE svg PUBLIC "-//W3C//DTD SVG 1.1//EN" "http://www.w3.org/Graphics/SVG/1.1/DTD/svg11.dtd">
<!-- Creator: CorelDRAW -->
<svg xmlns="http://www.w3.org/2000/svg" xml:space="preserve" width="512px" height="512px" version="1.1" style="shape-rendering:geometricPrecision; text-rendering:geometricPrecision; image-rendering:optimizeQuality; fill-rule:evenodd; clip-rule:evenodd"
viewBox="0 0 512 512"
 xmlns:xlink="http://www.w3.org/1999/xlink">
 <defs>
  <style type="text/css">
   <![CDATA[
    .fil0 {fill:black}
   ]]>
  </style>
 </defs>
 <g id="Layer_x0020_1">
  <metadata id="CorelCorpID_0Corel-Layer"/>
  <g id="_361790840">
   <g id="_361790456">
    <path class="fil0" d="M369 347c-41,0 -75,-33 -75,-74 0,-41 34,-75 75,-75 41,0 74,34 74,75 0,41 -33,74 -74,74zm0 -135c-34,0 -61,27 -61,61 0,33 27,60 61,60 33,0 60,-27 60,-60 0,-34 -27,-61 -60,-61z"/>
   </g>
   <g id="_361788944">
    <path class="fil0" d="M388 422l-39 0c-7,0 -13,-6 -14,-14l-2 -32c-13,-5 -25,-12 -36,-21l-29 14c-2,1 -4,2 -6,2 -5,0 -10,-3 -12,-7l-20 -34c-4,-6 -2,-14 5,-18l27 -18c-2,-7 -2,-14 -2,-21 0,-7 0,-14 2,-21l-27 -18c-7,-4 -9,-12 -5,-19l20 -34c2,-4 7,-7 12,-7 2,0 4,1 6,2l29 15c11,-10 23,-17 36,-21l2 -33c1,-7 7,-13 14,-13l39 0c8,0 14,6 14,13l2 33c13,4 26,11 36,21l29 -15c2,-1 5,-2 7,-2 5,0 9,3 12,7l20 34c3,7 1,15 -5,19l-27 18c1,7 2,14 2,21 0,7 -1,14 -2,21l27 18c6,4 8,12 5,18l-20 34c-3,4 -7,7 -12,7 -2,0 -5,-1 -7,-2l-29 -14c-10,9 -23,16 -36,21l-2 32c0,8 -6,14 -14,14zm-39 -14l39 0c0,0 0,0 0,-1l2 -37c1,-3 3,-5 5,-6 15,-4 28,-12 39,-23 2,-2 6,-2 8,-1l34 17c0,0 0,0 0,0l19 -34c0,0 0,0 0,0l-31 -20c-2,-2 -4,-5 -3,-8 2,-7 3,-15 3,-22 0,-8 -1,-15 -3,-23 -1,-3 1,-6 3,-7l31 -21c0,0 0,0 0,0l-19 -34c0,0 0,0 0,1l-34 16c-2,2 -6,1 -8,-1 -11,-10 -24,-18 -39,-22 -2,-1 -4,-4 -5,-7l-2 -37c0,0 0,0 0,0l-39 0c0,0 0,0 0,0l-2 37c0,3 -2,6 -5,7 -14,4 -28,12 -39,22 -2,2 -5,3 -8,1l-33 -16c0,-1 0,-1 0,-1l-20 34c0,0 0,0 0,0l31 21c3,1 4,4 3,7 -1,8 -2,15 -2,23 0,7 1,15 2,22 1,3 0,6 -3,8l-31 20c0,0 0,0 0,0l20 34c0,0 0,0 0,0l33 -17c3,-1 6,-1 8,1 11,11 25,19 39,23 3,1 5,3 5,6l2 37c0,1 0,1 0,1z"/>
   </g>
   <g>
    <g>
     <g id="_361790288">
      <path class="fil0" d="M134 483l-41 0c-4,0 -7,-3 -7,-7l0 -130c0,-4 3,-7 7,-7l41 0c3,0 7,3 7,7l0 130c0,4 -4,7 -7,7zm-34 -14l27 0 0 -116 -27 0 0 116z"/>
     </g>
     <g id="_361789160">
      <path class="fil0" d="M174 483l-40 0c-4,0 -7,-3 -7,-7l0 -230c0,-4 3,-7 7,-7l40 0c4,0 7,3 7,7l0 230c0,4 -3,7 -7,7zm-33 -14l26 0 0 -216 -26 0 0 216z"/>
     </g>
     <g id="_361789208">
      <path class="fil0" d="M214 483l-40 0c-4,0 -7,-3 -7,-7l0 -185c0,-4 3,-7 7,-7l40 0c4,0 7,3 7,7l0 185c0,4 -3,7 -7,7zm-33 -14l26 0 0 -171 -26 0 0 171z"/>
     </g>
    </g>
    <g id="_361790528">
     <path class="fil0" d="M246 483l-184 0c-4,0 -7,-3 -7,-7 0,-4 3,-7 7,-7l184 0c4,0 7,3 7,7 0,4 -3,7 -7,7z"/>
    </g>
   </g>
   <g id="_361787600">
    <path class="fil0" d="M369 512l-326 0c-4,0 -7,-3 -7,-7l0 -398c0,-4 3,-7 7,-7l71 0 0 -59c0,-4 3,-7 7,-7l248 0c4,0 7,3 7,7l0 90c0,4 -3,7 -7,7 -4,0 -7,-3 -7,-7l0 -83 -234 0 0 59c0,3 -3,7 -7,7l-71 0 0 384 312 0 0 -83c0,-4 3,-7 7,-7 4,0 7,3 7,7l0 90c0,4 -3,7 -7,7z"/>
   </g>
   <g id="_361789184">
    <path class="fil0" d="M44 478l-34 0c-4,0 -7,-3 -7,-7l0 -464c0,-4 3,-7 7,-7l324 0c4,0 7,3 7,7l0 34c0,3 -3,7 -7,7 -4,0 -7,-4 -7,-7l0 -27 -310 0 0 450 27 0c4,0 7,4 7,7 0,4 -3,7 -7,7z"/>
   </g>
   <g id="_361790960">
    <path class="fil0" d="M121 114l-78 0c-3,0 -5,-2 -6,-5 -1,-3 -1,-6 2,-8l77 -66c3,-1 5,-2 8,-1 2,1 4,4 4,7l0 66c0,3 -3,7 -7,7zm-59 -14l52 0 0 -44 -52 44z"/>
   </g>
   <g>
    <g id="_361791080">
     <path class="fil0" d="M329 83l-168 0c-4,0 -7,-3 -7,-7 0,-4 3,-7 7,-7l168 0c4,0 7,3 7,7 0,4 -3,7 -7,7z"/>
    </g>
    <g id="_361791152">
     <path class="fil0" d="M269 112l-108 0c-4,0 -7,-3 -7,-7 0,-4 3,-7 7,-7l108 0c4,0 7,3 7,7 0,4 -3,7 -7,7z"/>
    </g>
   </g>
  </g>
 </g>
</svg>
