<?xml version="1.0" encoding="iso-8859-1"?>
<!-- Generator: Adobe Illustrator 23.0.6, SVG Export Plug-In . SVG Version: 6.00 Build 0)  -->
<svg version="1.1" id="Layer_1_1_" xmlns="http://www.w3.org/2000/svg" xmlns:xlink="http://www.w3.org/1999/xlink" x="0px" y="0px"
	 viewBox="0 0 64 64" style="enable-background:new 0 0 64 64;" xml:space="preserve">
<path d="M41.858,53.615c-0.313-0.313-0.37-0.789-0.169-1.184c0.279-0.548,0.516-1.12,0.709-1.713C42.535,50.296,42.911,50,43.354,50
	H45v-6h-1.646c-0.443,0-0.819-0.296-0.956-0.718c-0.193-0.593-0.43-1.165-0.709-1.714c-0.201-0.395-0.144-0.87,0.169-1.184
	l1.163-1.163l-4.243-4.243l-1.163,1.163c-0.313,0.313-0.789,0.37-1.184,0.169c-0.548-0.279-1.121-0.516-1.714-0.709
	C34.296,35.465,34,35.089,34,34.646V33h-6v1.646c0,0.443-0.296,0.819-0.718,0.956c-0.593,0.193-1.165,0.43-1.714,0.709
	c-0.395,0.201-0.87,0.144-1.184-0.169l-1.163-1.163l-4.243,4.243l1.163,1.163c0.313,0.313,0.37,0.789,0.169,1.184
	c-0.279,0.548-0.516,1.121-0.709,1.714C19.465,43.704,19.089,44,18.646,44H17v6h1.646c0.443,0,0.819,0.296,0.956,0.718
	c0.193,0.593,0.43,1.165,0.709,1.713c0.201,0.395,0.144,0.87-0.169,1.184l-1.163,1.163l4.243,4.243l1.163-1.163
	c0.313-0.313,0.789-0.37,1.184-0.169c0.548,0.279,1.121,0.516,1.713,0.709C27.704,58.535,28,58.911,28,59.354V61h6v-1.646
	c0-0.443,0.296-0.819,0.718-0.956c0.593-0.193,1.165-0.43,1.713-0.709c0.395-0.201,0.87-0.144,1.184,0.169l1.163,1.163l4.243-4.243
	L41.858,53.615z M31,55c-4.418,0-8-3.582-8-8s3.582-8,8-8s8,3.582,8,8S35.418,55,31,55z"/>
<path d="M11.479,10.294C11.331,10.707,10.963,11,10.524,11H9v4h1.524c0.439,0,0.807,0.293,0.955,0.706
	c0.086,0.239,0.182,0.472,0.289,0.699c0.187,0.397,0.134,0.864-0.177,1.175l-1.077,1.077l2.828,2.828l1.077-1.077
	c0.31-0.31,0.778-0.364,1.175-0.177c0.227,0.107,0.461,0.204,0.699,0.289C16.707,20.669,17,21.037,17,21.476V23h4v-1.524
	c0-0.439,0.293-0.807,0.706-0.955c0.239-0.086,0.472-0.182,0.699-0.289c0.397-0.187,0.864-0.134,1.175,0.177l1.077,1.077
	l2.828-2.828l-1.077-1.077c-0.31-0.31-0.364-0.778-0.177-1.175c0.107-0.227,0.204-0.461,0.289-0.699
	C26.669,15.293,27.037,15,27.476,15H29v-4h-1.524c-0.439,0-0.807-0.293-0.955-0.706c-0.086-0.239-0.182-0.472-0.289-0.699
	c-0.187-0.397-0.134-0.864,0.177-1.175l1.077-1.077l-2.828-2.828L23.58,5.592c-0.31,0.31-0.778,0.364-1.175,0.177
	c-0.227-0.107-0.461-0.204-0.699-0.289C21.293,5.331,21,4.963,21,4.524V3h-4v1.524c0,0.439-0.293,0.807-0.706,0.955
	c-0.239,0.086-0.472,0.182-0.699,0.289c-0.397,0.187-0.864,0.134-1.175-0.177l-1.077-1.077l-2.828,2.828l1.077,1.077
	c0.31,0.31,0.364,0.778,0.177,1.175C11.661,9.823,11.565,10.056,11.479,10.294z M19,9c2.209,0,4,1.791,4,4c0,2.209-1.791,4-4,4
	s-4-1.791-4-4C15,10.791,16.791,9,19,9z"/>
<rect x="2" y="12" width="4" height="2"/>
<path d="M50.5,12H32v2h18.5c3.584,0,6.5,2.916,6.5,6.5S54.084,27,50.5,27H13C7.486,27,3,31.486,3,37v1c0,5.514,4.486,10,10,10v-2
	c-4.411,0-8-3.589-8-8v-1c0-4.411,3.589-8,8-8h37.5c4.687,0,8.5-3.813,8.5-8.5S55.187,12,50.5,12z"/>
<polygon points="56,44 56,46 48,46 48,48 56,48 56,50 61.5,47 "/>
<rect x="26" y="48" width="2" height="2"/>
<rect x="30" y="46" width="2" height="4"/>
<rect x="34" y="44" width="2" height="6"/>
</svg>
