<?xml version="1.0" encoding="iso-8859-1"?>
<!-- Generator: Adobe Illustrator 16.0.0, SVG Export Plug-In . SVG Version: 6.00 Build 0)  -->
<!DOCTYPE svg PUBLIC "-//W3C//DTD SVG 1.1//EN" "http://www.w3.org/Graphics/SVG/1.1/DTD/svg11.dtd">
<svg version="1.1" xmlns="http://www.w3.org/2000/svg" xmlns:xlink="http://www.w3.org/1999/xlink" x="0px" y="0px" width="512px"
	 height="512px" viewBox="0 0 512 512" style="enable-background:new 0 0 512 512;" xml:space="preserve">
<g id="_x39_44_x2C__Development_x2C__Service_x2C__Setting_x2C__Web">
	<g>
		<path d="M443.007,61.006H69.003c-23.712,0-43.001,19.284-43.001,42.996V348c0,23.717,19.289,43.002,43.001,43.002h150.818
			l-20.001,40.003h-33.817c-16.545,0-30.002,13.457-30.002,30.002c0,16.535,13.458,29.992,30.002,29.992h180.004
			c16.535,0,29.992-13.457,29.992-29.992c0-16.545-13.457-30.002-29.992-30.002H312.18l-20.002-40.003h150.829
			c23.707,0,42.991-19.285,42.991-43.002V104.002C485.998,80.29,466.714,61.006,443.007,61.006z M69.003,81.002h374.003
			c12.68,0,23,10.32,23,23v217.004H216.824c0.792-2.211,1.519-4.442,2.162-6.693l33.189-7.421c4.572-1.017,7.819-5.07,7.819-9.762
			v-26.257c0-4.682-3.247-8.736-7.819-9.752L218.99,253.7c-2.296-8.029-5.514-15.788-9.607-23.169l18.229-28.787
			c2.5-3.955,1.928-9.114-1.385-12.421l-18.547-18.547c-3.307-3.313-8.477-3.885-12.432-1.375l-28.767,18.269
			c-7.296-4.074-15.051-7.296-23.179-9.632l-7.411-33.209c-1.026-4.572-5.08-7.819-9.762-7.819H99.872
			c-4.682,0-8.74,3.247-9.762,7.819l-7.421,33.209c-8.118,2.336-15.877,5.558-23.169,9.632l-13.517-8.581v-75.086
			C46.003,91.322,56.323,81.002,69.003,81.002z M173.483,321.006c1.674-6.484,2.521-13.168,2.521-20.001
			c0-44.117-35.89-80.002-80.001-80.002c-18.612,0-36.069,6.271-49.999,17.467v-35.69l7.989,5.07
			c3.282,2.082,7.471,2.077,10.743-0.01c8.701-5.558,18.323-9.563,28.603-11.894c3.765-0.856,6.699-3.805,7.541-7.57l7.002-31.367
			h10.235l7.007,31.367c0.837,3.766,3.775,6.714,7.541,7.57c10.275,2.331,19.897,6.335,28.598,11.894
			c3.277,2.087,7.46,2.092,10.743,0.01l27.198-17.267l7.227,7.227l-17.228,27.204c-2.062,3.267-2.062,7.431,0,10.693
			c5.623,8.89,9.607,18.502,11.849,28.593c0.841,3.785,3.8,6.743,7.585,7.59l31.357,7.003v10.229l-31.357,7.003
			c-3.785,0.847-6.744,3.805-7.585,7.59c-1.31,5.907-3.252,11.704-5.772,17.292H173.483z M46.003,321.006v-53.161
			C57.17,250.991,75.667,241,96.002,241c33.085,0,60,26.914,60,60.005c0,6.902-1.155,13.606-3.426,20.001H46.003z M355.998,461.007
			c0,5.509-4.482,9.991-9.991,9.991H166.003c-5.519,0-10.001-4.482-10.001-9.991c0-5.519,4.482-10.001,10.001-10.001
			c39.654,0,144.045,0,180.004,0C351.516,451.006,355.998,455.488,355.998,461.007z M289.817,431.005h-67.635l20.001-40.003h27.642
			L289.817,431.005z M443.007,371c-16.307,0-357.638,0-374.003,0c-12.68,0-23-10.319-23-23v-6.992c14.708,0,406.097,0,420.003,0V348
			C466.007,360.681,455.687,371,443.007,371z"/>
		<rect x="316.005" y="211.002" width="69.995" height="19.997"/>
		<rect x="296.003" y="181.005" width="109.999" height="19.997"/>
		<rect x="416.003" y="181.005" width="20.001" height="19.997"/>
		<rect x="365.999" y="281.003" width="20.001" height="20.002"/>
		<rect x="396.001" y="281.003" width="20.002" height="20.002"/>
		<path d="M196.005,51.005c5.518,0,9.996-4.482,9.996-10.001c0-5.523-4.478-10-9.996-10c-5.528,0-10.001,4.477-10.001,10
			C186.004,46.522,190.477,51.005,196.005,51.005z"/>
		<path d="M386,41.004c5.528,0,10.001-4.478,10.001-10c0-5.523-4.473-10.001-10.001-10.001c-5.519,0-10.001,4.478-10.001,10.001
			C375.999,36.526,380.481,41.004,386,41.004z"/>
		<path d="M386,411.003c-5.519,0-10.001,4.473-10.001,10.001c0,5.519,4.482,10.001,10.001,10.001
			c5.528,0,10.001-4.482,10.001-10.001C396.001,415.476,391.528,411.003,386,411.003z"/>
		<path d="M146.001,411.003c0-5.519-4.478-10.001-10.001-10.001c-5.518,0-10,4.482-10,10.001s4.482,10.001,10,10.001
			C141.524,421.004,146.001,416.521,146.001,411.003z"/>
		<rect x="296.003" y="241" width="140.001" height="20.001"/>
		<rect x="296.003" y="281.003" width="59.995" height="20.002"/>
		<path d="M398.93,158.075c3.904,3.904,10.239,3.904,14.145,0l20.001-20.002c3.905-3.904,3.905-10.24,0-14.145l-20.001-19.996
			c-3.905-3.91-10.24-3.91-14.145,0c-3.905,3.904-3.905,10.234,0,14.139l12.929,12.929l-12.929,12.93
			C395.024,147.835,395.024,154.17,398.93,158.075z"/>
		<path d="M318.934,158.075c3.904,3.904,10.229,3.904,14.145,0c3.904-3.905,3.904-10.24,0-14.145l-12.93-12.93l12.93-12.929
			c3.904-3.905,3.904-10.235,0-14.139c-3.915-3.91-10.24-3.91-14.145,0l-20.002,19.996c-3.904,3.905-3.904,10.24,0,14.145
			L318.934,158.075z"/>
		<path d="M355.998,161.003c3.665,0,7.201-2.022,8.944-5.528l20.002-40.003c2.471-4.941,0.468-10.947-4.473-13.417
			c-4.94-2.465-10.947-0.463-13.417,4.473l-19.992,40.003C343.706,153.229,348.646,161.003,355.998,161.003z"/>
		<path d="M86.002,411.003c-16.541,0-29.998,13.457-29.998,30.003c0,16.535,13.457,29.992,29.998,29.992
			c16.54,0,29.997-13.457,29.997-29.992C115.999,424.46,102.542,411.003,86.002,411.003z M86.002,451.006
			c-5.514,0-9.996-4.492-9.996-10c0-5.519,4.482-10.001,9.996-10.001c5.513,0,10,4.482,10,10.001
			C96.002,446.514,91.515,451.006,86.002,451.006z"/>
		<path d="M441.005,401.002c-19.305,0-35.003,15.699-35.003,35.003c0,19.295,15.698,34.993,35.003,34.993
			c19.294,0,35.002-15.698,35.002-34.993C476.007,416.701,460.299,401.002,441.005,401.002z M441.005,451.006
			c-8.278,0-15.002-6.733-15.002-15.001c0-8.277,6.724-15.001,15.002-15.001c8.268,0,15.001,6.724,15.001,15.001
			C456.006,444.272,449.272,451.006,441.005,451.006z"/>
	</g>
</g>
<g id="Layer_1">
</g>
</svg>
