<?xml version='1.0' encoding='utf-8'?>
<svg xmlns="http://www.w3.org/2000/svg" version="1.1" id="Layer_1" x="0px" y="0px" viewBox="0 0 1000 1000" enable-background="new 0 0 1000 1000"> <g> <rect y="744.06" fill="#CCCCCC" width="811.09" height="71.55"/> <path fill="#998675" d="M628.53,675.02c-0.01-11.41-2.38-22.67-4.75-33.83c-0.94-4.43-1.88-8.87-2.82-13.3 c-2.08-9.8-4.15-19.6-6.7-29.29c-0.79-3.01-1.62-6-2.43-9c-3.22-12.03-6.16-23.86-7-36.28c-8.01-10.8-21.83-17.24-35.25-16.5 c-0.29-0.68-1.09-1-1.82-1.1c-0.73-0.11-1.51-0.09-2.18-0.42c-0.47-0.23-0.84-0.61-1.23-0.96c-2.45-2.17-5.78-2.97-8.96-3.71 c-1.48-0.34-2.61-0.81-4.12-0.76c-1.65-1.53-4.3-1.47-6.54-1.28c-1.29-3.68-5.39-5.39-8.36-7.91c-2.05-1.74-3.63-3.98-5.06-6.26 c-7.37-11.72-11.17-25.27-11.63-39.11c1.89,1.3,4.76,0.86,6.18-0.94c0.65-0.83,0.99-1.86,1.32-2.87 c1.72-5.24,3.46-10.64,3.06-16.13c-0.08-1.16-0.46-2.59-1.48-3.14c-0.01-3.27-1.07-6.53-2.99-9.18c-1.2-1.67-2.36-2.69-4.33-3.27 c-0.68-14.19-6.05-28.11-15.06-39.08c-4.39-5.35-9.73-10.07-16.08-12.82c-7.33-3.17-15.63-3.53-23.53-2.34s-15.09,4.88-22.7,7.28 c-11.49,3.61-20.13,13.77-24.15,25.12c-0.69,1.95-1.26,3.95-1.56,5.99c-0.58,4-0.08,8.07,0.41,12.08c0.36,2.92,0.72,5.84,1.27,8.72 c1.61,8.57,5.05,16.76,9.72,24.13c0.9,1.42,1.38,3.04,1.67,4.69c0.64,3.63,3.77,6.83,5.1,10.47c1.11,3.02,0.96,6.36,1.9,9.43 c0.72,2.35,2.05,4.47,3.37,6.55c5.88,9.29,12.29,19.05,22.26,23.69c-12.12,2-23.13,3.82-35.26,5.82c-1.75,0.29-3.55,0.6-5.02,1.59 c-1.47,0.99-2.44,3.33-1.88,5.01c-8.64,0.72-17.9,1.69-24.48,7.33c-4.82,4.13-7.48,10.19-9.7,16.14 c-6.52,17.48-6.36,36.51-11.7,54.38c-1.15,3.85-2.3,7.69-3.45,11.54c-1.3,4.35-2.6,8.71-3.63,13.14c-0.93,4-1.64,8.05-2.78,11.99 c-1.66,5.72-4.21,11.16-5.79,16.9c-1.5,5.48-2.1,11.17-3.29,16.73c-1.19,5.56-2.92,11.57-6.55,15.94v26.13 c-0.56,6.94-0.59,13.92-0.47,20.88c0.04,2.43,0.15,4.97,1.3,7.1c0.45,0.82,1.36,1.65,2.2,1.25c0.32-0.15,0.54-0.46,0.73-0.76 c0.67-1.07,1.32-2.14,1.57-3.39c10.57-1.39,21.08,2.79,31.73,3.01c1.47,0.03,3.11-0.08,4.13-1.14c1.2-1.24,1.05-3.46,1.91-4.96 c1.62-0.65,3.25-1.31,4.87-1.96c1.51-0.61,3.04-1.22,4.64-1.52s3.13-0.03,4.62,0.64c-2.32,0.32-4.6,0.89-6.79,1.71 c-0.76,0.28-1.52,0.6-2.11,1.15c-0.59,0.55-0.99,1.37-0.83,2.16c0.22,1.11,1.57,1.42,2.61,1.87c12.69-1.86,25.54-2.7,38.36-2.52 c7.75,0.11,15.55,0.59,23.23-0.48c3.01-0.42,6-1.08,9.03-1.14c3.77-0.08,7.48,0.75,11.22,1.21c4.36,0.54,8.76,0.58,13.15,0.61 c22.14,0.17,44.54-0.83,66.67-0.22c16.72,0.46,33.44,0.92,50.16,1.37c2.53,0.07,5.22,0.1,7.38-1.23c3.03-1.87,4.02-5.74,4.67-9.24 C628.57,719.1,628.54,697.01,628.53,675.02z M402.71,709.95c-2.44,8.21-8.41,15.01-15.83,19.29c-2.07-4.86-1.93-10.42-0.71-15.55 c1.22-5.14,3.45-9.97,5.49-14.84c6.23-14.85,10.82-30.38,13.67-46.22C402.3,671.5,408.15,691.63,402.71,709.95z M554.23,714.44 c4.79-21.46,12.77-42.21,23.59-61.36c-0.64,18.77,0.13,39.62,8.86,56.24C575.63,709.68,564.76,711.05,554.23,714.44z"/> <path fill="#FC9783" d="M525.75,538.08c4.2-5.51,7.35-11.69,9.84-18.16c-1.67-1.62-3.03-3.53-4.27-5.5 c-7.37-11.72-11.17-25.27-11.63-39.11c1.89,1.3,4.76,0.86,6.18-0.94c0.65-0.83,0.99-1.86,1.32-2.87 c1.72-5.24,3.46-10.64,3.06-16.13c-0.08-1.16-0.46-2.59-1.48-3.14c-0.01-3.27-1.07-6.53-2.99-9.18c-1.2-1.67-2.36-2.69-4.33-3.27 c-0.63-13.17-5.31-26.11-13.18-36.68c-9.34-0.63-18.73-0.28-28.09,0.08c-11.76,0.45-23.7,0.94-34.9,4.54 c-10.22,3.29-19.58,9.17-26.99,16.94c-0.42,3.76,0.03,7.58,0.5,11.35c0.36,2.92,0.72,5.84,1.27,8.72 c1.61,8.57,5.05,16.76,9.72,24.13c0.9,1.42,1.38,3.04,1.67,4.69c0.64,3.63,3.77,6.83,5.1,10.47c1.11,3.02,0.96,6.36,1.9,9.43 c0.72,2.35,2.05,4.47,3.37,6.55c5.72,9.03,11.95,18.5,21.45,23.28c-0.08-0.17,0.26,0.27-0.04-0.23c2.43,0.29,4.28,2.51,4.89,4.88 c0.62,2.37,0.26,4.87-0.12,7.29c-0.62,3.92-1.29,7.88-0.95,11.83c0.34,3.95,1.82,7.97,4.84,10.54c4.03,3.43,9.87,3.63,15.12,2.94 C502.2,558.52,516.46,550.26,525.75,538.08z"/> <path fill="#934E6B" d="M295.17,357.92c4.86-3.72,9.65-7.59,13.74-12.15c4.08-4.56,7.37-9.93,9-15.83c0.35-0.01,0.93-0.2,1.08-0.51 c9-5.01,16.17-13.22,19.93-22.81c3.76-9.59,0.6-18.85,1.14-29.13c0.71-13.39-3.58-26.99-11.85-37.56 c-8.27-10.56-20.61-18.67-33.94-20.19c-11.78-1.34-23.94,0.77-34.58,6s-17.82,15.4-25.74,24.23c-4.71,5.25-5.93,12.44-7.09,19.39 c-1.66,9.87-1.62,20.76-0.12,30.65c-9.34,10.01-16.02,22.58-19.8,35.73c-3.69,3.14-6.62,7.21-8.94,11.46 c-5.54,2.8-11.82,3.64-17.97,4.45c-13.5,1.77-26.81,5.96-40.39,6.92c-3.28,0.23-5.33,3.76-4.65,6.98 c-7.88,1.78-14.28,7.84-18.24,14.88c-3.96,7.04-5.82,15.05-7.45,22.97c-1.63,7.92-3.75,15.82-5.77,23.64 c-5.58,21.57-16.16,42.09-23.51,63.13c-4.15,11.87-7.04,24.17-8.6,36.65c-0.39,3.15-0.69,6.43,0.36,9.42 c1.12,3.18,3.66,5.67,6.45,7.57c3.25,2.21,6.96,3.78,10.84,4.36c10.4,1.56,20.21-3.98,30.71-3.29c-0.34,4.44,0.67,8.98,2.84,12.87 c0.2,0.36,0.42,0.72,0.75,0.96c0.57,0.42,1.33,0.42,2.04,0.38c2.06-0.1,4.06-0.49,6.11-0.79c-1.3,5.31-2.61,10.62-3.91,15.94 c-0.35,1.44-0.56,2.96-0.24,4.41c-8.88,15.19-17.87,30.64-22.18,47.71c-1.51,5.96-2.42,12.06-3.33,18.14 c-3.4,22.7-6.82,45.48-7.14,68.43c-0.15,10.54,0.74,21.85-2.52,31.87c16.31-0.31,32.62-0.22,48.93,0.27l6.85-0.34 c6.09,0,14.04,1.1,20.06,2l0-149.75h114.98c1.79,0,3.4,0.19,5.2,0.19l-0.19-44.75c0.86,10.04,6.67,19.53,15.22,24.86 c6.38,3.98,14.83,5.55,21.41,1.92c4.37-2.42,7.38-6.82,9.1-11.51c1.72-4.69,3.62-9.78,3.35-14.77c-0.7-13.1-1.4-26.2-2.11-39.3 c-1.01-18.92-0.04-37.82,2.32-56.62c1.47-11.67,1.7-23.5,0.68-35.21c-0.26-3.05-0.62-6.11-1.5-9.04c-0.88-2.93-2.39-5.56-4.58-7.7 c0.87-1.93,1.75-4.16,0.85-6.08c-0.57-1.22-1.76-2.02-2.89-2.75c-10.79-6.98-21.88-13.48-32.96-19.98 c-4.17-2.45-7.92-5.21-12.09-7.66C287.02,364.08,291.2,360.96,295.17,357.92z M134.2,473.26c-1.11,5.59-2.48,11.12-4.11,16.58 c-0.44,1.48-4.47,15.68-5.44,15.58c-2.78-0.27-5.56-0.55-8.34-0.82c3.11-5.53,5.97-11.21,8.58-16.99c2.3-5.1,4.39-10.28,6.29-15.54 c0.48-1.34,1.08-5.71,2.87-5.13C136.11,467.6,134.46,471.96,134.2,473.26z"/> <path d="M340.05,277.48c0.71-13.39-3.58-26.99-11.85-37.56c-8.27-10.56-20.61-18.67-33.94-20.19c-11.78-1.34-23.94,0.77-34.58,6 s-17.82,15.4-25.74,24.23c-4.71,5.25-5.93,12.44-7.09,19.39c-1.66,9.87-1.62,20.76-0.12,30.65c-9.25,9.91-15.89,22.34-19.69,35.37 c0.58-0.46,1.16-0.93,1.74-1.39c2.38-1.91,4.8-3.84,7.62-5c2.82-1.16,6.14-1.47,8.87-0.1c21.92,11.01,48.94,10.03,70.71-1.29 c4.7-2.45,9.21-5.38,14.28-6.94c5.07-1.55,10.99-1.51,15.22,1.68c0.54,0.41,1.05,0.87,1.54,1.34c5.21-4.67,9.34-10.54,11.89-17.06 C342.66,297.02,339.5,287.77,340.05,277.48z"/> <path fill="#491D31" d="M198.14,347.21c0.34,6.4,1.36,12.72,3.17,18.78c1.77,6.07,4.3,11.91,7.46,17.31 c1.56,2.65,3.5,4.88,6.09,5.17c2.63,0.37,5.55-0.7,8.29-2.02c5.53-2.61,10.3-6.74,13.79-11.73l1.91-2.73l1.09,3.12 c1.86,5.31,4.8,10.34,8.37,14.63c1.77,2.03,4,3.71,6.47,4.68c2.47,0.97,5.16,1.23,7.68,0.42c2.54-0.77,4.84-2.44,6.9-4.37 c2.06-1.95,3.93-4.18,5.66-6.49c3.48-4.64,6.37-9.76,9.35-14.82c-2.34,5.38-4.82,10.73-8.02,15.74c-1.6,2.51-3.39,4.89-5.46,7.11 c-2.07,2.2-4.55,4.2-7.61,5.3c-3.05,1.12-6.55,1-9.54-0.14c-3.02-1.1-5.66-2.99-7.8-5.31c-2.08-2.31-3.79-4.77-5.33-7.39 c-1.53-2.61-2.84-5.36-3.87-8.23l3,0.4c-3.81,5.53-9.13,9.95-15.19,12.77c-1.51,0.69-3.08,1.32-4.78,1.74 c-1.69,0.42-3.52,0.64-5.39,0.32c-1.88-0.3-3.7-1.3-4.97-2.6c-1.31-1.28-2.21-2.78-3.01-4.23c-1.53-2.9-2.88-5.85-4.02-8.9 c-1.12-3.05-2.04-6.17-2.75-9.33C198.26,360.1,197.69,353.61,198.14,347.21z"/> <path fill="#333333" d="M148.29,594.46c-5.63-0.17-11.47-0.22-16.54-2.67c-3.34-1.61-6.21-4.62-7.38-8.04 c-7.86,13.56-15.38,27.45-19.21,42.61c-1.51,5.96-2.42,12.06-3.33,18.14c-3.4,22.7-6.82,45.48-7.14,68.43 c-0.15,10.54,0.74,21.85-2.52,31.87c16.31-0.31,32.62-0.22,48.93,0.27l6.85-0.34c6.09,0,14.04,1.1,20.06,2l0-149.75h12.78 C169.98,595.74,159.16,594.79,148.29,594.46z"/> <path fill="#FC9783" d="M313.76,289.08c-13.33-3.83-27.86-0.12-40.02,6.56c-12.16,6.68-22.51,16.14-33.32,24.83 c-4.4,3.54-9.17,9.82-14.44,7.8c-1.07,3.14-3.8,5.42-6.34,7.55s-4.39,3.06-6.02,5.95c0.82,10.95,5.51,21.56,13.05,29.54 c1.34,1.41,2.82,2.79,4.67,3.39c1.9,0.62,3.95,0.37,5.95,0.34c4.56-0.07,9.08,1.09,13.64,1.02c4.56-0.07,10.01-1.78,12.12-5.83 c2.84,3.15,7.21,4.84,11.43,4.42c4.22-0.42,8.4-3.04,10.56-6.69c0.03,0.02,0.06,0.04,0.09,0.06c2.28-4.19,6.25-7.19,10.05-10.1 c4.86-3.72,9.65-7.59,13.74-12.15c4.08-4.56,7.37-9.93,9-15.83c0.35-0.01,0.93-0.2,1.08-0.51c2.78-1.55,5.39-3.41,7.78-5.52 c0.38-1.69,0.77-3.38,1.18-5.06c1.38-5.69,2.91-11.74,1.02-17.28C326.75,295.12,320.32,290.96,313.76,289.08z"/> <path fill="#FC9783" d="M153.34,499.74c-1.89,8.66-2.08,17.69-0.54,26.42c7.86,4.43,16.83,7.03,25.85,7.35 c5.57,3.95,11.35,7.42,17.35,10.69c0.7,0.38,1.45,0.77,2.25,0.76c0.8-0.01,1.65-0.57,1.69-1.37c1.3,1,3.45,1.12,4.98,0.53 c1.54-0.58,2.73-2,3.04-3.62c1.19,0.61,2.36,0.89,3.67,1.1s2.77-0.03,3.73-0.96c0.96-0.93,1.25-2.35,1.44-3.68 c0.32-2.13,0.54-4.27,0.67-6.41c2.14-1.29,4.37-2.72,6.51-4c1.19,3.71,3.99,6.91,7.35,8.87c0.57,0.33,1.53,0.42,2.17,0.55 c0.65,0.12,1.41-0.09,1.72-0.67c0.18-0.34,0.19-0.74,0.18-1.12c-0.06-2.71-0.68-5.41-1.79-7.88c-2.76-6.12-4.26-13.02-9.44-17.3 s-11.56-6.9-18.08-8.53c-0.76-2.21-3.33-3.62-5.66-3.8s-4.63,0.51-6.9,1.07c-8.08,2.02-16.51,2.59-24.78,1.69 C162.92,498.79,158.4,496.77,153.34,499.74z"/> <path d="M186.71,526.75c3.9,0.69,7.47,3.05,10,6.16c2.52,3.11,4.11,7.08,3.99,11.04c-0.8-3.85-2.47-7.37-4.88-10.32 C193.42,530.66,190.32,528.31,186.71,526.75z"/> <path d="M197.7,521.56c3.29,2.16,6.19,4.86,8.77,7.84c0.63,0.77,1.25,1.59,1.71,2.52c0.45,0.94,0.74,1.95,0.83,2.97 c0.21,2.03-0.16,4-0.61,5.9c0.01-1.96,0.07-3.93-0.27-5.77c-0.32-1.87-1.26-3.44-2.53-4.88C203.1,527.2,200.4,524.41,197.7,521.56z "/> <g> <path d="M232.23,520.88l57.79-37.85l-2.2-4.03l-57.22,38.48C230.99,518.68,231.54,519.82,232.23,520.88z"/> <path d="M223.31,523.58c-0.17-0.23-0.47-0.46-0.74-0.7l-5.76,3.87l0.66,3.8l7-4.58C224.21,525.11,223.84,524.29,223.31,523.58z"/> </g> <path fill="#E34A3B" d="M217.16,526.62c-2.67-5.04-6.81-9.3-11.78-12.1c6.75,0.17,13.41,3.13,17.47,8.53 C220.8,523.74,218.73,525.14,217.16,526.62z"/> <polygon fill="#FC9783" points="287.81,479 295.7,476.5 290.01,483.03 "/> <path d="M134.46,468.17c-0.01-8.62,0.1-17.25,0.23-25.87l0.53-25.86l0.8-25.85l0.49-12.92l0.61-12.92l-0.05,12.94l-0.17,12.93 l-0.54,25.86l-0.8,25.85C135.25,450.94,134.91,459.55,134.46,468.17z"/> <path d="M306.54,500.36l4.44-12.47c1.48-4.15,2.94-8.31,4.32-12.5c2.75-8.37,5.31-16.8,7.19-25.39c0.97-4.29,1.78-8.61,2.43-12.96 c0.66-4.35,1.15-8.73,1.74-13.1c0.57-4.37,1.15-8.75,1.88-13.11c0.77-4.35,1.65-8.68,2.87-12.93c-0.97,4.31-1.73,8.65-2.31,13.01 c-0.62,4.36-1.1,8.74-1.57,13.13c-0.92,8.76-2.01,17.56-3.93,26.21c-1.98,8.62-4.54,17.1-7.48,25.43 C313.17,484,309.92,492.21,306.54,500.36z"/> <path d="M124.5,506.06c2.27-1.13,4.64-2.05,7.06-2.84c2.41-0.81,4.88-1.43,7.37-1.95c2.49-0.49,5.01-0.87,7.55-1.06 c1.27-0.09,2.53-0.16,3.8-0.19c1.27,0.01,2.54,0,3.8,0.09l-3.76,0.47c-1.25,0.15-2.5,0.32-3.74,0.51c-2.48,0.39-4.96,0.79-7.42,1.3 c-2.46,0.48-4.91,1.07-7.35,1.67C129.36,504.67,126.94,505.37,124.5,506.06z"/> <path d="M118.89,545.62c1.58-0.51,3.15-1.03,4.68-1.64c1.54-0.58,3.06-1.22,4.54-1.94c2.96-1.43,5.82-3.04,8.52-4.9 c2.72-1.84,5.29-3.89,7.84-5.98l7.59-6.41c-1.11,1.23-2.27,2.41-3.42,3.61c-1.18,1.17-2.37,2.32-3.58,3.46 c-2.43,2.27-5.03,4.37-7.78,6.26c-2.76,1.88-5.71,3.5-8.81,4.76C125.38,544.11,122.17,545.07,118.89,545.62z"/> <path fill="#FC9783" d="M285.44,529.9c-4.29-0.29-8.54-1.09-12.64-2.37c-1.65-0.52-3.37-1.17-4.45-2.53 c-1.07-1.36-1.18-3.62,0.22-4.65c-1.24-0.47-2.63-0.6-3.94-0.79c-1.32-0.18-2.73-0.73-3.3-1.93c-0.66-1.37,0.01-2.97,0.67-4.34 c-2.51,0.03-4.95-0.08-7.46-0.05c-0.58,0.01-1.2,0.01-1.71-0.28c-1.03-0.57-1.2-2.04-0.8-3.15c0.55-1.52,1.85-2.67,3.3-3.38 c1.45-0.71,3.06-1.03,4.64-1.35c3.81-0.76,7.62-1.52,11.42-2.29c-0.4-0.82-0.94-1.78-1.35-2.6c-1.12-0.69-2.77-1.13-4.04-1.49 c-1.27-0.35-2.6-1.16-2.81-2.46c-0.14-0.84,0.25-1.7,0.87-2.29c0.62-0.58,1.44-0.91,2.27-1.09c-0.94-1.19-2.04-2.61-1.76-4.11 c0.25-1.35,1.52-2.31,2.85-2.65c2.58-0.65,5.52,0.84,6.53,3.3c5.2-0.43,10.49-0.79,15.69-1.22c4.04-0.34,8.54-0.53,11.64,2.08 c2.65,2.24,3.49,5.93,3.98,9.37c0.99,0.31,2.32,0.7,3.22,1.21c0.9,0.51,1.71,1.25,2.12,2.21c0.42,0.98,0.39,2.09,0.29,3.15 c-0.18,2.02-0.55,4.02-1.11,5.96c1,1.11,1.25,2.93,1.14,4.43c-0.11,1.49-0.51,2.96-0.57,4.45c-0.12,2.88,1.1,5.79,3.24,7.73 c-1.74,5.06-5.14,9.72-9.74,12.45s-10.19,3.75-15.47,2.84c0.12-1.51,0.11-2.85,0.23-4.36C286.18,537.23,285.43,533.4,285.44,529.9z "/> <path fill="#CCCCCC" d="M252.77,512.1c1.03-0.13,2.07-0.09,3.1-0.2c1.03-0.11,2.09-0.4,2.86-1.08c0.78-0.69,1.19-1.85,0.77-2.8 c-0.53-1.18-2.03-1.55-3.32-1.56c-1.25,0.05-2.57,0.71-3.31,1.71C252.14,509.16,252.46,510.9,252.77,512.1z"/> <path fill="#CCCCCC" d="M261.76,514.21c0.97-0.08,1.91-0.37,2.88-0.4c0.97-0.04,2.03,0.25,2.58,1.05c0.5,0.73,0.44,1.75-0.04,2.5 c-0.47,0.75-1.29,1.22-2.15,1.42c-0.86,0.2-1.76,0.13-2.63-0.03c-0.63-0.55-1.05-1.35-1.19-2.17 C261.06,515.75,261.36,514.94,261.76,514.21z"/> <path fill="#CCCCCC" d="M268.97,525.3c0.63,0.24,1.27,0.47,1.95,0.53c0.67,0.05,1.39-0.1,1.89-0.56c0.66-0.61,0.78-1.69,0.38-2.51 c-0.39-0.82-1.21-1.37-2.08-1.61c-0.87-0.24-1.8-0.19-2.69-0.03c-0.36,0.06-0.68,0.23-0.8,0.58s-0.13,0.73-0.13,1.09 c-0.01,0.52-0.01,1.05,0.2,1.53C267.92,524.87,268.42,525.1,268.97,525.3z"/> <path d="M270.45,500.6c2.47-0.1,4.87-0.49,7.28-0.95c2.4-0.47,4.83-0.94,7.32-1.18c2.5-0.23,5.01-0.02,7.44,0.19 c1.22,0.1,2.43,0.18,3.65,0.14c1.22,0,2.43-0.15,3.63-0.43c-1.12,0.52-2.36,0.8-3.59,0.99c-1.24,0.16-2.49,0.18-3.73,0.18 c-2.48-0.01-4.9-0.18-7.3,0.07c-2.41,0.2-4.83,0.63-7.28,0.91c-1.23,0.13-2.46,0.25-3.7,0.29 C272.91,500.82,271.67,500.8,270.45,500.6z"/> <path d="M261.68,513.6c2.91-0.19,5.76-0.65,8.59-1.26l8.5-1.92c2.86-0.59,5.75-1.11,8.7-1.23c1.47-0.06,2.94-0.05,4.41,0.08 c1.46,0.17,2.91,0.4,4.31,0.84c-1.45-0.19-2.89-0.31-4.33-0.28c-1.44-0.01-2.88,0.07-4.31,0.24c-2.86,0.33-5.7,0.86-8.53,1.47 c-2.84,0.59-5.68,1.25-8.58,1.66c-1.45,0.21-2.9,0.38-4.36,0.47C264.6,513.73,263.14,513.75,261.68,513.6z"/> <path d="M268,520.36c2.61-0.35,5.24-0.48,7.88-0.48c2.64-0.01,5.27,0.17,7.89,0.46c2.63,0.31,5.2,0.78,7.77,1.04 c1.29,0.13,2.58,0.18,3.88,0.12c1.3-0.03,2.58-0.23,3.86-0.55c-1.19,0.56-2.5,0.88-3.81,1.1c-1.32,0.19-2.65,0.23-3.98,0.2 c-2.66-0.06-5.27-0.5-7.85-0.78c-2.59-0.31-5.19-0.52-7.79-0.72C273.24,520.57,270.62,520.48,268,520.36z"/> <path d="M287.31,555.16c0.12-2.02,0.38-3.93,0.53-5.87c0.18-1.94,0.26-3.86,0.49-5.88c0.67,1.92,0.8,3.97,0.65,5.98 C288.78,551.38,288.3,553.38,287.31,555.16z"/> <path d="M239.17,320.81c0.03,4.9,0.53,9.73,1.56,14.43c1.05,4.69,2.57,9.26,4.6,13.6c2,4.35,4.52,8.46,7.43,12.28 c2.93,3.82,6.29,7.31,10.02,10.5c-4.28-2.41-8.12-5.64-11.4-9.36c-3.3-3.72-6.01-7.95-8.12-12.45c-2.08-4.52-3.57-9.32-4.28-14.24 C238.26,330.66,238.26,325.64,239.17,320.81z"/> <path d="M332.04,317.79l-17.48,23.31c-2.89,3.9-5.88,7.74-8.69,11.69c-1.36,1.99-2.57,4.13-3.2,6.47 c-0.63,2.32-0.71,4.86,0.19,7.14c-0.94-2.26-0.92-4.82-0.33-7.17c0.59-2.38,1.77-4.56,3.1-6.59c2.75-4.02,5.65-7.91,8.47-11.86 l17.02-23.65L332.04,317.79z"/> <path d="M336.05,309.99c0.12,3.3-0.41,6.59-1.39,9.71c-0.97,3.13-2.43,6.07-4.07,8.87c-3.29,5.62-7.52,10.55-11.56,15.56 c-4.01,5.02-7.92,10.22-10.4,16.17c-1.25,2.96-2.04,6.1-2.42,9.3c-0.23,1.59-0.47,3.2-0.98,4.74c-0.5,1.53-1.38,2.98-2.7,3.92 c1.31-0.96,2.16-2.42,2.63-3.95c0.49-1.53,0.7-3.14,0.91-4.73c0.34-3.21,1.09-6.39,2.3-9.39c2.41-6.03,6.28-11.33,10.22-16.41 c3.97-5.08,8.1-10.05,11.27-15.64c1.58-2.78,2.96-5.68,3.86-8.73c0.91-3.04,1.36-6.21,1.2-9.36L336.05,309.99z"/> <path d="M135.51,590.31c-2.64,7.88-4.02,16.08-4.88,24.3c-0.86,8.23-1.29,16.51-1.97,24.79c-0.77,8.27-1.87,16.56-4.14,24.59 c-1.15,4.01-2.57,7.94-4.36,11.7c-1.83,3.74-4,7.33-6.62,10.54c4.87-6.74,8.07-14.5,10.14-22.47c2.08-7.99,3.17-16.22,3.85-24.46 c0.77-8.24,1.19-16.54,2.24-24.79c0.53-4.12,1.19-8.23,2.1-12.29C132.8,598.17,133.96,594.17,135.51,590.31z"/> <path d="M145.07,591.79c-1.59,7.65-3,15.34-4.12,23.06c-1.11,7.72-2.04,15.47-2.6,23.26c-0.62,7.78-0.97,15.57-1.02,23.38 c-0.1,7.8,0.11,15.61,0.51,23.42l-0.14-0.01l0.59-2.42l-0.45,2.45l-0.09,0.49l-0.05-0.5c-0.81-7.78-1.21-15.6-1.3-23.43 c-0.05-7.83,0.23-15.66,0.82-23.46c0.66-7.8,1.56-15.59,2.88-23.3C141.4,607,143.03,599.34,145.07,591.79z"/> <path d="M125.39,588.86c-2.35,3.03-4.56,6.14-6.55,9.39c-1.98,3.25-3.8,6.6-5.37,10.06c-1.59,3.45-2.94,7.01-4.11,10.63l-0.83,2.73 l-0.73,2.76l-0.68,2.78c-0.19,0.94-0.39,1.87-0.6,2.81c0.09-0.95,0.19-1.91,0.3-2.86l0.43-2.85l0.58-2.82l0.69-2.8 c0.98-3.72,2.32-7.35,3.92-10.86c1.62-3.5,3.49-6.88,5.67-10.06C120.27,594.59,122.69,591.58,125.39,588.86z"/> <path d="M162.27,593.76c-0.92,6.26-1.82,12.52-2.59,18.8c-0.77,6.27-1.5,12.55-2.03,18.85c-0.62,6.29-1.05,12.59-1.44,18.9 c-0.19,3.15-0.35,6.31-0.49,9.47l-0.39,9.48c-0.12-3.16-0.14-6.33-0.17-9.5c0.02-3.17,0.08-6.33,0.17-9.5 c0.2-6.33,0.64-12.65,1.18-18.97c0.63-6.3,1.34-12.6,2.3-18.86C159.76,606.18,160.88,599.94,162.27,593.76z"/> <path d="M509.34,458.28c1.82-0.12,3.35-1.53,4.22-3.13c0.87-1.61,1.23-3.43,1.78-5.18c1.19-3.84,3.33-7.36,6.12-10.25 c-0.69-14.17-6.05-28.07-15.06-39.03c-4.39-5.35-9.73-10.07-16.08-12.82c-7.33-3.17-15.63-3.53-23.53-2.34s-15.09,4.88-22.7,7.28 c-11.49,3.61-20.13,13.77-24.15,25.12c-0.69,1.95-1.26,3.95-1.56,5.99c-0.58,4-0.08,8.07,0.41,12.08c0.36,2.92,0.72,5.84,1.27,8.72 c0.89,4.71,2.34,9.3,4.23,13.71c-0.27-1.65-0.61-3.29-0.88-4.92c-0.77-4.58-0.82-9.8,2.25-13.28c1.93-2.18,4.85-3.32,7.76-3.54 c2.91-0.22,5.82,0.39,8.6,1.24c1.29,0.39,2.61,0.84,3.95,0.67c2.88-0.37,4.57-3.33,6.89-5.07c4.05-3.04,9.76-2.22,14.55-3.87 c2.92-1,5.45-2.91,8.28-4.15c2.83-1.24,6.35-1.7,8.85,0.11c5.14,3.72,1.99,13.31,7.11,17.05c2.3,1.68,5.57,1.53,7.84,3.23 c2.24,1.67,2.94,4.64,3.96,7.23C504.49,455.72,506.55,458.46,509.34,458.28z"/> <path d="M436.47,398.32c-0.24-11.37,3.13-22.8,9.5-32.22c6.37-9.42,15.72-16.8,26.37-20.81c8.71-3.28,19.17-4.09,26.76,1.29 c5.76,4.08,8.84,11.01,10.46,17.88c1.63,6.87,2.07,13.99,3.93,20.8c3.51,12.8,12.22,24.09,23.71,30.74 c1.27,3.37-1.21,7.17-4.66,8.17c-3.45,1-7.24-0.42-9.98-2.76c-2.73-2.34-4.6-5.5-6.43-8.6c-6.96-11.82-13.96-23.72-18.58-36.63 c-1.37-3.84-2.62-7.91-5.49-10.81c-3.96-4-10.43-4.84-15.72-2.92c-5.29,1.92-9.47,6.2-12.31,11.06 c-2.84,4.86-4.48,10.31-6.03,15.73C450.65,390.64,442.56,393.92,436.47,398.32z"/> <path d="M467.92,524.32c1.31,3.14,3.79,5.68,6.76,7.22c2.95,1.58,6.33,2.28,9.64,1.94c3.31-0.31,6.53-1.39,9.41-3.06 c2.9-1.65,5.46-3.85,7.69-6.35c4.52-4.96,7.84-10.95,10.99-16.92c1.56-3,2.98-6.08,4.28-9.21c1.34-3.12,2.5-6.3,3.6-9.52 c-0.86,3.29-1.92,6.52-3.08,9.72c-1.2,3.18-2.54,6.32-4.02,9.39c-1.46,3.08-3.12,6.06-4.88,8.99c-1.78,2.91-3.74,5.74-6.05,8.3 c-2.32,2.54-4.99,4.8-8.02,6.48c-3.01,1.68-6.38,2.84-9.86,3.03c-3.47,0.25-7-0.59-9.98-2.33 C471.44,530.28,468.99,527.57,467.92,524.32z"/> <g> <path d="M421.54,536.33c0.93,3.4,0.28,7.04-0.79,10.35c-1.09,3.34-2.59,6.5-3.66,9.79c-2.21,6.57-3.48,13.42-4.16,20.32 c-0.77,6.9-0.95,13.86-1.16,20.82l-0.27,10.45c2.16,3.11-6.01,41.09-6.17,44.57c-0.09-3.48,5.67-41.1,5.61-44.58l-0.05-10.46 c0.03-6.97,0.22-13.96,0.91-20.92c0.77-6.95,2.05-13.9,4.47-20.49c1.19-3.31,2.77-6.42,3.96-9.68 C421.46,543.28,422.22,539.79,421.54,536.33z"/> <path d="M579.42,537.3c-5.5,3.98-9.5,9.64-12.17,15.77c-2.68,6.13-4.44,12.71-5.31,19.33c-0.43,3.3-0.27,6.66-0.15,10.04 c0.11,3.38,0.27,6.75,0.34,10.13l0.26,10.14c0.04,3.38,0.13,6.76,0.14,10.14c-0.27-3.37-0.46-6.75-0.7-10.12l-0.58-10.12 c-0.21-3.37-0.33-6.75-0.5-10.13c-0.15-3.36-0.36-6.79,0.06-10.21c0.44-3.4,1.21-6.71,2.11-9.99c0.94-3.27,2.05-6.5,3.54-9.57 c1.47-3.07,3.22-6.02,5.38-8.66C574.01,541.42,576.54,539.08,579.42,537.3z"/> </g> <path fill="#FC9783" d="M606.53,544.39c-0.05,7.2-4.93,13.66-10.94,17.63c-6.01,3.97-13.09,5.93-19.98,8.02 c-10.8,3.28-21.53,7.04-32.73,8.44c-12.15,1.52-24.46,0.22-36.64-1.09c-11.22-1.2-22.33-5.86-33.49-7.59 c-4.95-0.77-9.92-1.41-14.89-2.06c-3.5-0.46-7.08-0.91-10.55-0.28c-4.49,0.81-8.43,3.35-12.49,5.42 c-10.32,5.25-22.15,7.75-31.24,14.92c-2.13,1.68-4.21,3.87-4.37,6.58c-0.16,2.71,2.73,5.54,5.17,4.33c3,0.3,5.79,0.24,8.53-1 c-4.52,1.14-7.62,5.92-7.34,10.57c0.1,1.7,0.74,3.5,2.2,4.38c1.21,0.73,2.74,0.68,4.14,0.48c5.1-0.72,9.95-3.11,13.62-6.72 c4.4,0.15,8.69-1.75,12.06-4.58c-1.3,1.97-3.97,2.69-5.89,4.07c-1.91,1.38-3.81,3.08-4.37,5.37c-0.69,2.8,0.89,5.78,3.18,7.53 c2.3,1.74,5.19,2.48,8.03,3.02c-1.71,1.01-2.03,3.35-1.5,5.27s2.11,3.42,3.92,4.26c1.8,0.84,3.83,1.08,5.82,1.12 c2.3,0.05,4.63-0.15,6.77-0.99c2.14-0.84,4.07-2.37,5.03-4.45c13.49,1.87,27.76-0.53,40.64-4.95c4.79-1.64,9.47-3.71,14.43-4.74 c10.99-2.29,22.29,0.67,33.36,2.53c27.61,4.63,56.35,2.3,82.86-6.7c7.05-2.39,13.18-7.3,17.16-13.59 c3.98-6.29,6.01-13.59,7.99-20.77c5.9-21.44,11.8-42.87,17.71-64.31c1.28-4.66,0.71-10.07,0.21-14.89 c16.04,4.23,31.42,10.66,45.1,20.04c-2.49,48.2-1.51,96.46,1.02,144.66c1.01,19.14,2.36,38.73-2.97,57.14 c-1.97,6.82-2.03,15.2-2.52,22.29c-0.21,3.01-2.91,5.71-3.14,8.72c-0.27,3.47,2.82,6.49,6.18,7.38c3.37,0.89,6.93,0.19,10.34-0.52 c7.38,3.82,17.28,4.33,24.59,0.36c7.15,1.28,14.18,2.13,21.44,1.83c3.83-0.16,7.46,2.35,11.26,2.89c1.86,0.27,3.87-0.09,5.75-0.13 c-0.84-2.44-2.17-4.68-4.03-6.47c-0.65-2.4-1.88-4.63-3.52-6.51c-0.31-2.58-2.17-4.94-4.43-6.22c-3.74-2.11-7.08-4.85-11.24-5.93 c-4.16-1.08-8.47-1.76-12.36-3.57c-2.69-5.85-2.69-12.46-2.17-18.87c0.85-10.5,1.7-21.01,3.18-31.45 c2.15-15.1,4.71-30.31,7.28-45.35c2.97-17.38,1.84-35.58,1.1-53.2c9.43,10.73,18.69,21.4,22.9,35.04 c2.38,7.7,2.89,15.83,3.54,23.87c1.76,21.54,4.68,42.99,8.75,64.22c0.33,1.71,0.82,3.64,2.37,4.43c1.4,0.72,3.09,0.21,4.57-0.32 c6.87-2.42,13.75-4.85,20.62-7.27c2.51,17.71,3.92,35.13,6.44,52.84c2.86,20.2-14.44,37.09-21.87,56.09l137.04,0.43 c2.79-13.57,1.34-27.92-2.46-41.24c-1.82-6.36-2.72-13.05-2.48-19.66c0.29-8.25,1.73-16.78-0.94-24.6 c12.81-22.14,24.48-44.72,34.02-68.44c3.51-8.73,10.38-16.56,11.53-25.9c0.79-6.39,0.32-13.16,3.21-18.91 c2.36-4.7,0.69-10.66,0.83-15.92c2.72-2.17,5.45-4.62,8.16-6.79c-7.02-22.08-15.65-44.13-26.27-64.72c0,0-97.9-166.4-169.45-212.75 c-13.3-8.62-25.81-19.82-41.66-19.55c-5.26,0.09-10.46,1.05-15.63,2c-12.33,2.28-24.66,4.56-36.99,6.83 c-10.98-6.91-25.85-6.77-37.2-0.49c-8.61-7.49-15.07-17.33-19.09-28.01c-0.45-1.19-0.88-2.41-1.7-3.38 c-1.59-1.89-4.23-2.38-6.56-3.2c-10.83-3.82-16.87-16.1-27.61-20.16c-3.65-1.38-7.61-1.7-11.5-1.97 c-15.65-1.07-32.03-1.35-46.24,5.29c-13.94,6.51-24.15,18.93-32.9,31.59c-5.64,8.16-10.93,16.69-14.16,26.06s-4.3,19.74-1.44,29.24 c2.21,7.35,1.97,14.42,5.32,21.33c-1.6,9.9-2.61,19.9,0.36,29.48s10.53,18.29,20.4,20.04c1.79,0.32,3.62,0.4,5.44,0.49 c5.43,0.26,10.85,0.51,16.28,0.77c-6.1-3.5-13.63-4.23-19.75-7.7c-4.82-2.74-8.51-7.4-10.06-12.72c5.7,5.27,14.44,6,22.12,4.88 c1.31-0.19,2.62-0.43,3.86-0.9c2.81-1.07,5.02-3.26,7.15-5.4c-5.67,1.01-11.95,2.13-17.64,1.24c-5.69-0.88-11.37-4.03-13.74-9.28 c-1.12-2.48-1.45-5.26-1.44-7.99c0-3.57,0.58-7.25,2.5-10.26c1.43-2.24,4.21-4.13,6.64-3.06c5.62,2.46,5.1,11.49,9.88,15.34 c1.2,0.97,2.6,1.65,4,2.29c2.2,1.01,4.44,1.94,6.71,2.79c0.79,3.94,2.09,7.75,2.89,11.69c1.11,5.53,2.25,11.13,4.76,16.19 c1.26,2.54,3.15,5.13,5.94,5.67c3.75,0.73,7.04-2.52,9.15-5.71c0.74,1.43,1.45,2.54,2.33,3.88c0.41,0.63,0.86,1.27,1.53,1.62 c0.53,0.28,1.13,0.35,1.73,0.42c1.65,0.19,3.3,0.38,4.96,0.57c0.57,1,1.35,2.04,2.18,2.85c1.28,1.24,3.06,1.88,4.84,2.01 c1.78,0.13,3.56-0.2,5.28-0.67c0.18,1.45,0.69,2.56,1.9,3.38s2.63,1.28,4.04,1.66c2.05,0.55,4.13,0.97,6.23,1.27 c-0.43,1.34-0.72,2.06-1.14,3.4c-2.12,6.65-4.27,13.58-3.29,20.49c0.6,4.22,0.57,8.51,1.43,12.69c0.29,1.4,0.58,2.79,0.87,4.19 c-1.36,0.57-3.02,1.82-4.03,2.89s-1.53,2.75-0.84,4.05c0.53,0.99,1.61,1.52,2.48,2.23c2.71,2.22,3.34,6.16,2.94,9.64 c-0.4,3.48-1.6,6.85-1.78,10.35c-0.23,4.69,1.4,9.34,0.97,14.01c-0.36,3.88-2.11,7.48-3.54,11.1 C608.6,529.78,606.59,536.67,606.53,544.39z"/> <path d="M438.54,528.22c2.6,5.25,5.27,10.48,8.55,15.31c3.25,4.84,7.11,9.3,11.76,12.79c4.62,3.47,10.03,6.01,15.77,6.65 c5.69,0.67,11.69-0.44,16.42-3.68l0.43-0.29l0.33,0.41c0.95,1.17,2.17,2.08,3.52,2.75c1.37,0.65,2.87,1.04,4.39,1.26 c3.07,0.43,6.24,0.26,9.35-0.07c6.24-0.72,12.32-2.71,17.85-5.69c5.54-2.98,10.47-7.08,14.46-11.97c2-2.44,3.78-5.07,5.3-7.84 c1.5-2.78,2.75-5.71,3.73-8.73c-1.69,6.12-4.67,11.89-8.58,16.93c-3.95,5.01-8.89,9.27-14.48,12.4c-5.58,3.14-11.8,5.15-18.16,5.94 c-3.18,0.36-6.4,0.55-9.63,0.12c-1.61-0.23-3.22-0.63-4.73-1.33c-1.5-0.71-2.86-1.76-3.91-3.07l0.75,0.11 c-5.02,3.39-11.28,4.49-17.18,3.76c-5.95-0.7-11.52-3.35-16.16-7c-4.67-3.64-8.52-8.23-11.69-13.17 C443.49,538.86,440.91,533.57,438.54,528.22z"/> <path fill="#FC9783" d="M471.31,748.22c1.05-0.02,2.11,0.03,3.15,0.12c-0.86-4.41-2.56-8.82-4.24-12.98 c-1.82-4.49-3.57-8.94-7.13-12.23c-7.28-1.07-14.53,1.62-21.84,2.44c-7.35,0.82-14.79,2.15-22.03,0.64 c-3.61-0.75-7.08,1.73-10.74,2.07c-2.86,0.27-5.69-0.78-8.56-0.78c-1.45,0-2.89,0.26-4.33,0.15c-1.43-0.11-2.92-0.67-3.68-1.88 c-1.57,1.29-3.26,2.46-5.02,3.48c-0.37-0.88-0.65-1.79-0.89-2.71c-0.25,0.09-0.5,0.2-0.75,0.31c-2.11-0.73-2.68-3.57-4.54-4.8 c-0.49-0.32-1.04-0.52-1.55-0.8c-0.76-0.42-1.41-1.02-2.04-1.61c-1.36-1.27-2.73-2.55-3.87-4.02c-0.93-1.2-1.76-2.56-3.1-3.28 c-2.13-1.14-4.77-0.25-6.86,0.95c-2.97,1.7-5.82,3.92-7.86,6.67c-1.62-0.47-3.23-0.95-4.85-1.42v7.79 c-0.56,6.94-0.59,13.92-0.47,20.88c0.04,2.43,0.15,4.97,1.3,7.1c0.45,0.82,1.36,1.65,2.2,1.25c0.32-0.15,0.54-0.46,0.73-0.76 c0.67-1.07,1.32-2.14,1.57-3.39c10.57-1.39,21.08,2.79,31.73,3.01c1.47,0.03,3.11-0.08,4.13-1.14c1.2-1.24,1.05-3.46,1.91-4.96 c1.62-0.65,3.25-1.31,4.87-1.96c1.51-0.61,3.04-1.22,4.64-1.52s3.13-0.03,4.62,0.64c-2.32,0.32-4.6,0.89-6.79,1.71 c-0.76,0.28-1.52,0.6-2.11,1.15c-0.59,0.55-0.99,1.37-0.83,2.16c0.22,1.11,1.57,1.42,2.61,1.87c12.69-1.86,25.54-2.7,38.36-2.52 c7.75,0.11,15.55,0.59,23.23-0.48C465.29,748.94,468.28,748.28,471.31,748.22z"/> <g> <path d="M359.03,728.01c-0.17,2.02-0.4,4.03-0.71,6.03l-0.89,5.94c-0.3,1.95-0.22,3.96-0.36,5.99c-0.11,2.02-0.42,4.12-1.32,5.95 c0.48-1.98,0.47-3.97,0.43-5.97c-0.04-1.99-0.17-4.05,0.12-6.09c0.33-2.02,0.66-4.04,1.16-5.99 C357.91,731.9,358.43,729.94,359.03,728.01z"/> <path d="M381.17,750.16c-0.78-0.64-1.52-1.43-1.9-2.45c-0.4-1-0.48-2.07-0.51-3.08c0-0.99-0.04-2.04,0.28-3.09 c0.28-1.03,1.03-2.05,2.05-2.31c-0.76,0.69-1.07,1.6-1.18,2.5c-0.1,0.91-0.03,1.88-0.01,2.88c0.01,0.98,0.04,1.93,0.22,2.84 C380.28,748.36,380.75,749.22,381.17,750.16z"/> <path d="M396.36,736.66c0.64-1.14,1.63-2.06,2.72-2.81c1.11-0.72,2.36-1.24,3.64-1.6c2.58-0.71,5.22-0.74,7.81-0.75l1.98,0.07 c0.65,0.01,1.32,0.06,1.98,0.2c1.3,0.27,2.55,0.63,3.78,1c1.23,0.36,2.47,0.65,3.74,0.87c1.26,0.26,2.54,0.4,3.83,0.55 c-1.29,0.11-2.6,0.08-3.9,0.01c-1.3-0.11-2.6-0.31-3.88-0.58c-1.28-0.25-2.52-0.6-3.76-0.79c-0.62-0.11-1.24-0.16-1.87-0.16 l-1.9-0.04c-2.56-0.02-5.14-0.01-7.61,0.46c-1.23,0.24-2.44,0.64-3.56,1.22C398.23,734.89,397.21,735.68,396.36,736.66z"/> <path d="M409.82,728.76c2.78-0.26,5.51-0.25,8.26-0.25c2.74,0.04,5.48,0.09,8.25,0.41c-2.73,0.59-5.5,0.74-8.26,0.73 C415.3,729.61,412.53,729.4,409.82,728.76z"/> <path d="M413.25,742.41c0.4-1.22,1.48-2.18,2.66-2.74c1.18-0.59,2.51-0.81,3.78-0.87c1.27-0.06,2.51,0,3.73,0.02 c1.22-0.02,2.43,0.03,3.58-0.51c-0.89,0.96-2.3,1.23-3.52,1.4c-1.26,0.17-2.52,0.16-3.72,0.23c-1.21,0.05-2.38,0.19-3.5,0.56 C415.12,740.86,414.07,741.44,413.25,742.41z"/> <path d="M381.92,744.06c-0.5-0.98-0.77-2.08-0.89-3.2c-0.1-1.11,0.03-2.36,0.7-3.39c1.35-2.06,3.82-2.91,6.11-2.97 c2.31-0.04,4.72,0.84,6.26,2.62c1.54,1.74,2.16,4.26,1.45,6.37c0.26-2.2-0.65-4.32-2.1-5.76c-1.47-1.43-3.55-2.14-5.6-2.09 c-2.02,0.02-4.17,0.75-5.4,2.33c-0.6,0.78-0.84,1.81-0.88,2.87C381.52,741.91,381.66,742.99,381.92,744.06z"/> <path d="M361.21,717.45c-0.48,3.8-0.9,7.6-1.15,11.4c-0.08,1.89-0.28,3.83-0.22,5.67c0.04,0.92,0.16,1.82,0.49,2.62 c0.31,0.8,0.87,1.46,1.58,1.85c1.44,0.8,3.42,0.44,4.84-0.54c1.45-0.97,2.34-2.68,2.9-4.43c0.57-1.78,0.77-3.67,1.06-5.57 c0.32-1.88,0.71-3.83,1.68-5.5c-1.48,3.59-0.89,7.49-1.89,11.31c-0.48,1.89-1.41,3.82-3.13,5.07c-0.85,0.61-1.84,1-2.88,1.15 c-1.04,0.15-2.16,0.02-3.13-0.5c-0.97-0.54-1.69-1.45-2.07-2.43c-0.38-0.99-0.51-2.01-0.53-3c0.01-1.99,0.21-3.86,0.42-5.78 C359.63,724.96,360.27,721.17,361.21,717.45z"/> </g> <path fill="#080721" d="M987.8,636.2c0.79-6.39,0.32-13.16,3.21-18.91c1.83-3.65,1.24-8.05,0.94-12.3 c-18.11-22.72-49.28-34.33-77.83-28.77c-29.77,5.8-54.1,28.36-69.28,54.61c-11.33,19.61-18.31,41.31-24.08,63.1 c-1.53,5.79-2.74,10.87-3.45,15.98c3.07-1.08,6.14-2.17,9.21-3.25c2.51,17.71,3.92,35.13,6.44,52.84 c2.86,20.2-14.44,37.09-21.87,56.09l137.04,0.43c2.79-13.57,1.34-27.92-2.46-41.24c-1.82-6.36-2.72-13.05-2.48-19.66 c0.29-8.25,1.73-16.78-0.94-24.6c12.81-22.14,24.48-44.72,34.02-68.44C979.78,653.37,986.65,645.54,987.8,636.2z"/> <g> <path fill="#CCCCCC" d="M353.32,752.14c-0.02,0.31-0.04,0.62-0.18,0.9c-0.28,0.53-0.93,0.73-1.51,0.87 c-0.65,0.16-2.36-6.27-1.01-7.12C352.94,745.33,353.38,751.02,353.32,752.14z"/> <path fill="#CCCCCC" d="M406.01,747.14c0.52,0.38,0.84,1.09,0.6,1.69c-0.23,0.59-0.89,0.87-1.48,1.1 c-1.17,0.45-2.34,0.9-3.51,1.34c-0.57,0.22-1.22,0.44-1.77,0.17c-0.25-0.12-0.45-0.32-0.59-0.55c-0.48-0.77-0.32-1.86,0.36-2.46 C401.05,747.17,404.26,745.88,406.01,747.14z"/> <path fill="#CCCCCC" d="M389.27,735.49c0.4,0.08,0.71,0.39,0.97,0.71c1.95,2.38,2.14,6.04,0.47,8.62 c1.58-0.11,2.83-1.22,3.34-2.72c0.51-1.5,0.25-3.18-0.43-4.6C392.19,737.52,390.25,736.55,389.27,735.49z"/> <path fill="#CCCCCC" d="M360.39,734.19c0.07-1.39,0.55-2.89,1.74-3.62c0.98-0.6,2.33-0.5,3.22,0.22c0.83,0.67,1.2,1.75,1.4,2.79 c0.4,2.05,0.33,3.56,0.23,5.65c-1.01,0.03-2.06,0.61-3.07,0.54c-0.95-0.06-2.92-0.2-3.47-1.17 C359.99,737.77,360.34,735.17,360.39,734.19z"/> </g> <g> <polygon points="360.48,722.25 350.56,718.53 350.56,723.84 359.88,727.18 "/> <path d="M371.5,726.37l-0.81,4.67l13.03,4.66c1.11-0.58,2.34-0.94,3.69-0.98c3.32-0.11,5.85,1.74,7.7,4.31 c0.22,0.3,0.38,0.61,0.51,0.93l28.69,10.26l1.52-3.51L371.5,726.37z"/> </g> <path fill="none" d="M493.82,622.3c1.92,4.74,5.61,8.59,9.83,11.49c4.22,2.89,8.97,4.9,13.72,6.77 c6.86,2.71,14.46,5.76,17.64,12.41c1.77,3.7,1.85,8.05,0.94,12.05c-0.91,4-2.76,7.73-4.72,11.33c-3.47,6.38-7.38,12.54-10.5,19.1 s-5.48,13.64-5.59,20.9"/> <path d="M462.28,722.15c3.83-0.56,7.67-0.99,11.51-1.4c3.85-0.38,7.7-0.69,11.56-0.96c7.72-0.52,15.46-0.72,23.19-0.76l11.58,0.11 c1.93,0,3.86,0.08,5.77-0.05c1.92-0.12,3.83-0.27,5.74-0.48c3.82-0.43,7.62-1.11,11.37-1.96c3.77-0.82,7.49-1.87,11.19-2.97 c-3.62,1.35-7.32,2.5-11.06,3.51c-3.75,0.97-7.55,1.75-11.4,2.29c-1.92,0.27-3.86,0.47-5.8,0.59c-1.94,0.14-3.88,0.08-5.81,0.1 l-11.6-0.01c-7.72-0.05-15.43,0.16-23.14,0.49c-3.86,0.16-7.71,0.38-11.56,0.64C469.99,721.53,466.14,721.85,462.28,722.15z"/> <path d="M336.69,765.77h-156.8c-7.37,0-13.35-5.98-13.35-13.35V607.11c0-7.37,5.98-13.35,13.35-13.35h156.8 c7.37,0,13.35,5.98,13.35,13.35v145.31C350.03,759.79,344.06,765.77,336.69,765.77z"/> <path fill="#505151" d="M991.84,601.38c2.72-2.17,5.45-4.62,8.16-6.79c-7.02-22.08-15.65-44.13-26.27-64.72 c0,0-97.9-166.4-169.45-212.75c-13.3-8.62-25.81-19.82-41.66-19.55c-5.26,0.09-10.46,1.05-15.63,2 c-12.33,2.28-24.66,4.55-36.99,6.83c-10.98-6.91-25.85-6.77-37.2-0.49c-8.61-7.49-15.07-17.33-19.09-28.01 c-0.45-1.19-0.88-2.41-1.7-3.38c-1.59-1.89-4.23-2.38-6.56-3.2c-10.83-3.82-16.87-16.1-27.61-20.16c-3.65-1.38-7.61-1.7-11.5-1.97 c-15.65-1.07-32.03-1.35-46.24,5.29c-13.94,6.51-24.15,18.93-32.9,31.59c-5.64,8.16-10.93,16.69-14.16,26.06 c-3.23,9.38-4.3,19.74-1.44,29.24c2.21,7.35,1.97,14.42,5.32,21.33c-1.6,9.9-2.61,19.9,0.36,29.48 c2.97,9.58,10.53,18.29,20.4,20.04c1.79,0.32,3.62,0.4,5.44,0.49c5.43,0.26,10.85,0.51,16.28,0.77c-6.1-3.5-13.63-4.23-19.75-7.7 c-4.82-2.74-8.51-7.4-10.06-12.72c5.7,5.27,14.44,6,22.12,4.88c1.31-0.19,2.62-0.43,3.86-0.9c2.51-0.96,4.55-2.81,6.47-4.72 c0.17,0.7,0.34,1.39,0.48,2.09c1.11,5.53,2.25,11.13,4.76,16.19c1.26,2.54,3.15,5.13,5.94,5.67c3.75,0.73,7.04-2.52,9.15-5.71 c0.74,1.43,1.45,2.54,2.33,3.88c0.41,0.63,0.86,1.27,1.53,1.62c0.53,0.28,1.13,0.35,1.73,0.42c1.65,0.19,3.3,0.38,4.96,0.57 c0.57,1,1.35,2.04,2.18,2.85c1.28,1.24,3.06,1.88,4.84,2.01c1.78,0.13,3.56-0.2,5.28-0.67c0.18,1.45,0.69,2.56,1.9,3.38 c1.21,0.83,2.63,1.28,4.04,1.66c2.05,0.55,4.13,0.97,6.23,1.27c-0.43,1.34-0.72,2.06-1.14,3.4c-2.12,6.65-4.27,13.58-3.29,20.49 c0.6,4.22,0.57,8.51,1.43,12.69c0.29,1.4,0.58,2.79,0.87,4.19c-1.36,0.57-3.02,1.82-4.03,2.89c-1.01,1.07-1.53,2.75-0.84,4.05 c0.53,0.99,1.61,1.52,2.48,2.23c2.71,2.22,3.34,6.16,2.94,9.64c-0.4,3.48-1.6,6.85-1.78,10.35c-0.2,3.93,0.9,7.83,1.02,11.74 c7.68-3.17,15.51-5.93,23.7-7.14c11.33-1.67,23.62-0.05,32.73,6.89c0.66,0.51,1.3,1.04,1.92,1.59c0.3-3.62-0.09-7.44-0.45-10.94 c14.16,3.74,27.8,9.19,40.21,16.86c3.37-8.65,8.48-16.7,9.69-25.91c20.98,3.09,43.19,1.92,63.72-3.39 c-15.67,31.35-21.17,66.9-20.5,102.13c8.61,9.87,16.76,19.9,20.63,32.45c2.38,7.7,2.89,15.83,3.54,23.87 c1.76,21.54,4.68,42.99,8.75,64.22c0.33,1.71,0.82,3.64,2.37,4.43c1.4,0.72,3.09,0.21,4.57-0.32c6.87-2.42,13.75-4.85,20.62-7.27 c0.17,1.17,0.32,2.34,0.47,3.51c1.95-2.04,3.91-4.02,5.93-5.87c18.74-17.18,46.75-25.62,57.64-48.59 c5.01-10.56,5.46-22.63,8.38-33.95c2.92-11.32,9.69-23.08,21.03-25.9c12.75-3.18,24.94,6.02,37.64,9.37 c11.35,2.99,22.93,1.23,34.22-2.47C991.83,602.3,991.82,601.84,991.84,601.38z M545.08,392.88c-5.69-0.88-11.37-4.03-13.74-9.28 c-1.13-2.48-1.45-5.26-1.44-7.99c0-3.57,0.58-7.25,2.5-10.26c1.43-2.24,4.21-4.13,6.64-3.06c5.62,2.46,5.1,11.49,9.88,15.34 c1.2,0.97,2.6,1.65,4,2.29c2.2,1.01,4.44,1.94,6.71,2.79c0.62,3.06,1.53,6.04,2.28,9.06C556.46,392.74,550.51,393.72,545.08,392.88 z"/> <path fill="#FC9783" d="M691.12,325.89c-7.52,2.37-15.17-3.22-18.12-10.53c-1.42-3.52-1.92-7.26-1.91-11.05 c-7.74-7.27-13.62-16.46-17.37-26.4c-0.45-1.19-0.88-2.41-1.7-3.38c-1.59-1.89-4.23-2.38-6.56-3.2 c-10.83-3.82-16.87-16.1-27.61-20.16c-3.65-1.38-7.61-1.7-11.5-1.97c-15.65-1.07-32.03-1.35-46.24,5.29 c-13.94,6.51-24.15,18.93-32.9,31.59c-5.64,8.16-10.93,16.69-14.16,26.06c-3.23,9.38-4.3,19.74-1.44,29.24 c2.21,7.35,1.97,14.42,5.32,21.33c-1.6,9.9-2.61,19.9,0.36,29.48c2.97,9.58,10.53,18.29,20.4,20.04c1.79,0.32,3.62,0.4,5.44,0.49 c5.43,0.26,10.85,0.51,16.28,0.77c-6.1-3.5-13.63-4.23-19.75-7.7c-4.82-2.74-8.51-7.4-10.06-12.72c5.7,5.27,14.44,6,22.12,4.88 c1.31-0.19,2.62-0.43,3.86-0.9c2.51-0.96,4.55-2.81,6.47-4.72c0.17,0.7,0.34,1.39,0.48,2.09c1.11,5.53,2.25,11.13,4.76,16.19 c1.26,2.54,3.15,5.13,5.94,5.67c3.75,0.73,7.04-2.52,9.15-5.71c0.74,1.43,1.45,2.54,2.33,3.88c0.41,0.63,0.86,1.27,1.53,1.62 c0.53,0.28,1.13,0.35,1.73,0.42c1.65,0.19,3.3,0.38,4.96,0.57c0.57,1,1.35,2.04,2.18,2.85c1.28,1.24,3.06,1.88,4.84,2.01 c1.78,0.13,3.56-0.2,5.28-0.67c0.18,1.45,0.69,2.56,1.9,3.38c1.21,0.83,2.63,1.28,4.04,1.66c2.05,0.55,4.13,0.97,6.23,1.27 c-0.13,0.42-0.25,0.77-0.37,1.11c11.84-4.08,21.49-14.3,24.55-26.48c5.26,0,10.32-0.42,15.58-0.42c2.27,15.79,3.7,31.75,3.6,47.7 C687.1,414.47,698.37,369.1,691.12,325.89z M545.08,392.88c-5.69-0.88-11.37-4.03-13.74-9.28c-1.13-2.48-1.45-5.26-1.44-7.99 c0-3.57,0.58-7.25,2.5-10.26c1.43-2.24,4.21-4.13,6.64-3.06c5.62,2.46,5.1,11.49,9.88,15.34c1.2,0.97,2.6,1.65,4,2.29 c2.2,1.01,4.44,1.94,6.71,2.79c0.62,3.06,1.53,6.04,2.28,9.06C556.46,392.74,550.51,393.72,545.08,392.88z"/> <path d="M676.79,323.3c2.47-1.26,3.57-4.32,3.38-7.09c-0.19-2.77-1.41-5.34-2.54-7.88c-0.58-1.31-1.13-2.63-1.66-3.95 c-1.08,0.47-2.14,0.97-3.16,1.53c-8.61-7.49-15.07-17.33-19.09-28.01c-0.45-1.19-0.88-2.41-1.7-3.38c-1.59-1.89-4.23-2.38-6.56-3.2 c-10.83-3.82-16.87-16.1-27.61-20.16c-3.65-1.38-7.61-1.7-11.5-1.97c-15.65-1.07-32.03-1.35-46.24,5.29 c-13.94,6.51-24.15,18.93-32.9,31.59c-5.64,8.16-10.93,16.69-14.16,26.06c-3.23,9.38-4.3,19.74-1.44,29.24 c2.21,7.35,1.97,14.42,5.32,21.33c-1.6,9.9-2.61,19.9,0.36,29.48c2.97,9.58,10.53,18.29,20.4,20.04c1.79,0.32,3.62,0.4,5.44,0.49 c5.43,0.26,10.85,0.51,16.28,0.77c-6.1-3.5-13.63-4.23-19.75-7.7c-4.82-2.74-8.51-7.4-10.06-12.72c5.7,5.27,14.44,6,22.12,4.88 c1.31-0.19,2.62-0.43,3.86-0.9c1.65-0.63,3.08-1.65,4.42-2.8c-0.24-0.68-0.51-1.34-0.81-1.98c-4.67,0.77-9.57,1.34-14.1,0.63 c-5.69-0.88-11.37-4.03-13.74-9.28c-1.13-2.48-1.45-5.26-1.44-7.99c0-3.57,0.58-7.25,2.5-10.26c1.43-2.24,4.21-4.13,6.64-3.06 c1.7,0.74,2.83,2.09,3.72,3.7c8.64-4.05,15.78-11.29,19.57-20.06c19.02,9.65,39.32,16.72,60.45,19.63 c-1.87-4.51-4.21-9.15-6.09-13.66c7.62-3.91,13.41-10.79,16.45-18.8c-2.79,3.39-6.56,5.98-10.73,7.37c1.6-2.8,3.23-5.64,5.5-7.93 c2.27-2.29,5.29-4.02,8.52-4.05c5.22-0.05,9.63,4.43,11.13,9.43c1.5,5,0.7,10.37-0.38,15.48c3.05-4.24,5.16-8.63,6.56-13.67 c4.1,0.56,8.74-0.23,11.83-2.98c2.12-1.89,3.26-4.68,3.69-7.49c0.43-2.81,0.21-5.67,0-8.5 C669.39,323.53,674.31,324.56,676.79,323.3z"/> <path d="M672.75,499.08c-3.8,1.32-8.04,1.06-11.86-0.2c-3.83-1.29-7.32-3.54-10.2-6.39c-2.89-2.86-5.12-6.29-6.96-9.87 c-1.84-3.59-3.29-7.34-4.62-11.12c-2.58-7.56-4.83-15.26-8.93-22.05c-1.99-3.42-4.74-6.35-6.99-9.69 c-1.11-1.68-2.08-3.47-2.71-5.38c-0.64-1.91-0.92-3.96-0.61-5.94c-0.34,4.04,1.47,7.84,3.79,11c2.3,3.22,5.14,6.09,7.27,9.54 c4.35,6.84,6.61,14.66,9.27,22.14c1.29,3.76,2.7,7.49,4.47,11.02c1.77,3.53,3.96,6.86,6.66,9.72c2.71,2.83,6.06,5.11,9.76,6.48 C664.75,499.76,668.88,500.14,672.75,499.08z"/> <path d="M661.58,447.77c0.44,5.34,1.29,10.63,2.62,15.79c1.33,5.16,3.05,10.22,5.28,15.05c2.15,4.87,4.79,9.51,7.78,13.92 l2.32,3.26l2.47,3.15l2.59,3.06l2.73,2.95l-2.95-2.74l-2.8-2.9l-2.62-3.07l-2.46-3.2c-3.17-4.35-5.85-9.06-8.11-13.96 c-2.17-4.93-3.94-10.06-5.09-15.32C662.18,458.51,661.55,453.14,661.58,447.77z"/> <path d="M669.4,437c3.54-0.62,6.75-2.48,9.32-4.93c2.6-2.44,4.57-5.47,6.12-8.66c1.58-3.19,2.79-6.55,3.99-9.92l3.61-10.11 l7.29-20.19c2.45-6.72,4.85-13.46,7.36-20.17c2.55-6.69,5.24-13.34,8.32-19.83c3.11-6.45,6.44-12.87,10.8-18.61 c2.18-2.86,4.59-5.57,7.33-7.92c1.36-1.19,2.8-2.28,4.32-3.26l2.25-1.45c0.72-0.51,1.44-1.03,2.13-1.59 c2.79-2.2,5.31-4.76,8.01-7.12c2.67-2.37,5.62-4.53,8.96-5.83c-3.31,1.39-6.17,3.61-8.78,6.04c-2.62,2.42-5.07,5.04-7.84,7.35 c-0.68,0.58-1.41,1.12-2.14,1.65l-2.24,1.49c-1.48,0.98-2.88,2.08-4.2,3.26c-2.66,2.35-4.99,5.05-7.1,7.91 c-4.19,5.74-7.52,12.09-10.57,18.53c-3.03,6.46-5.68,13.1-8.19,19.79l-14.9,40.25l-3.76,10.05c-1.26,3.35-2.51,6.72-4.17,9.92 c-1.66,3.19-3.73,6.21-6.43,8.61C676.25,434.68,672.95,436.47,669.4,437z"/> <circle cx="679.03" cy="478.33" r="4.65"/> <circle cx="791.14" cy="616.53" r="4.65"/> <path d="M685.39,449.46l19.75-13.31c6.63-4.47,13.35-8.9,20.08-13.31l0.45-0.29l0.29,0.46l5.41,8.54l0.28,0.44l-0.43,0.31 l-19.73,14.38l-9.91,7.13l-9.93,7.1l-0.23,0.16l-0.13-0.24L685.39,449.46z M685.39,449.46l6.33,11.14l-0.36-0.08l9.76-7.33 l9.78-7.3l19.65-14.49l-0.14,0.75l-5.35-8.58l0.74,0.16c-6.65,4.31-13.3,8.6-20.04,12.86L685.39,449.46z"/> <path d="M722.28,489.83c0-4.25,0.18-8.5,0.52-12.74c0.18-2.12,0.35-4.23,0.65-6.36c0.18-1.06,0.49-2.15,1.14-3.08 c0.64-0.91,1.63-1.68,2.83-1.81l-0.29,0.24c2.38-8.41,4.04-17,5.16-25.65c0.56-4.33,0.93-8.68,1.17-13.04 c0.14-2.18,0.13-4.35,0.34-6.59c0.23-2.19,0.82-4.59,2.5-6.33l-0.14,0.54c-3.24-11.83-3.12-24.45-0.15-36.28 c2.96-11.83,8.68-23,16.86-32c-3.9,4.65-7.24,9.75-9.9,15.19c-2.69,5.42-4.75,11.14-6.12,17.02c-2.73,11.74-2.88,24.17,0.4,35.77 l0.09,0.31l-0.22,0.24c-1.39,1.47-1.97,3.56-2.2,5.67c-0.22,2.12-0.23,4.33-0.37,6.52c-0.26,4.38-0.67,8.76-1.25,13.11 c-1.13,8.71-3.01,17.31-5.52,25.71l-0.07,0.22l-0.22,0.02c-0.94,0.08-1.81,0.7-2.39,1.5c-0.59,0.8-0.9,1.81-1.09,2.82 c-0.35,2.06-0.58,4.19-0.82,6.29C722.74,481.35,722.45,485.59,722.28,489.83z"/> <path d="M736.04,368.98c0.15-4.19,0.85-8.37,1.96-12.43c1.1-4.07,2.67-8.01,4.59-11.77c1.94-3.75,4.24-7.31,6.92-10.57l2.06-2.39 l2.18-2.29l2.31-2.14c0.8-0.68,1.61-1.34,2.43-2c-0.73,0.75-1.47,1.49-2.22,2.22l-2.12,2.31l-2.04,2.37l-1.92,2.46 c-2.48,3.34-4.71,6.86-6.6,10.55c-1.91,3.68-3.48,7.54-4.76,11.5C737.58,360.76,736.66,364.84,736.04,368.98z"/> <path d="M739.22,378.17c1.36-3.4,3.1-6.65,5.08-9.75c1.97-3.1,4.25-6.01,6.72-8.74c2.49-2.71,5.19-5.23,8.11-7.47l2.22-1.64 l2.27-1.55l2.35-1.42c0.8-0.45,1.61-0.89,2.41-1.31c-0.75,0.53-1.49,1.06-2.25,1.57l-2.2,1.63l-2.16,1.67l-2.1,1.74 c-2.75,2.37-5.38,4.88-7.82,7.56c-2.46,2.67-4.72,5.51-6.84,8.46C742.92,371.87,741.01,374.98,739.22,378.17z"/> <path d="M735.5,401.98c2.18-3.15,4.56-6.14,7.06-9.04c2.49-2.91,5.15-5.67,7.89-8.34c2.76-2.65,5.62-5.21,8.62-7.59 c1.5-1.19,3.02-2.36,4.55-3.5c1.57-1.1,3.12-2.21,4.74-3.24c-1.46,1.24-2.95,2.43-4.39,3.68c-1.46,1.23-2.91,2.47-4.33,3.73 c-2.85,2.53-5.66,5.09-8.39,7.74c-2.75,2.63-5.4,5.36-8.04,8.11C740.59,396.29,738.05,399.13,735.5,401.98z"/> <path d="M735.92,414.9c5.48-2.58,11-5.05,16.34-7.85c5.33-2.81,10.53-5.89,15.21-9.66c4.74-3.68,9.02-7.96,12.79-12.64 c1.9-2.33,3.66-4.78,5.27-7.33c1.65-2.52,3.12-5.17,4.49-7.86c-1.14,2.81-2.51,5.51-4.01,8.16c-1.53,2.62-3.22,5.15-5.06,7.58 c-3.68,4.85-8.02,9.19-12.78,12.99c-4.81,3.75-10.06,6.89-15.52,9.54C747.2,410.48,741.58,412.76,735.92,414.9z"/> <path d="M784.95,487.93l14.43-0.64l-0.21,0.19c1.38-11.45,3.78-22.76,6.75-33.89c1.49-5.57,3.09-11.1,4.7-16.63l4.86-16.57 l4.91-16.56l2.46-8.28c0.82-2.76,1.73-5.49,2.35-8.27c1.26-5.58,1.64-11.34,1.49-17.07c-0.13-5.74-0.8-11.47-1.64-17.16 c1.07,5.66,1.85,11.38,2.15,17.14c0.29,5.76-0.02,11.58-1.2,17.27c-0.59,2.85-1.46,5.6-2.23,8.37l-2.41,8.29l-4.82,16.58 c-3.17,11.07-6.62,22.06-9.66,33.15c-3.06,11.08-5.64,22.3-7.28,33.69l-0.03,0.18l-0.18,0L784.95,487.93z"/> <path d="M828.62,385.5c1.68-2.06,3.29-4.14,4.77-6.32c1.46-2.18,2.84-4.42,4.05-6.74c1.24-2.31,2.31-4.7,3.3-7.14l0.71-1.84 l0.64-1.87l0.62-1.88c0.18-0.64,0.37-1.27,0.58-1.9c-0.14,1.32-0.4,2.63-0.66,3.94c-0.31,1.29-0.67,2.58-1.06,3.86 c-0.81,2.55-1.88,5.01-3.12,7.38c-1.26,2.36-2.7,4.63-4.35,6.72C832.45,381.8,830.64,383.77,828.62,385.5z"/> <path d="M664.63,467.53c-2.63,0.54-5.37,0.5-8.03,0.04c-2.66-0.49-5.24-1.43-7.64-2.69c-4.81-2.54-8.87-6.4-11.86-10.94 c-2.91-4.59-4.85-9.73-5.97-15c-1.13-5.27-1.55-10.65-1.52-16c0.23,2.67,0.47,5.33,0.88,7.97c0.37,2.64,0.85,5.26,1.5,7.84 c1.28,5.14,3.17,10.17,6.07,14.58c2.82,4.44,6.75,8.17,11.32,10.79C653.93,466.73,659.29,468.14,664.63,467.53z"/> <path d="M615.66,469.01c2.99-2.2,6.45-3.74,10.02-4.77c3.58-1,7.33-1.5,11.03-1.2c-3.66,0.61-7.22,1.29-10.72,2.3 C622.48,466.31,619.08,467.6,615.66,469.01z"/> <path d="M613.13,445.19c2.52,2.44,5.29,4.45,8.36,5.93c3.06,1.49,6.36,2.41,9.84,2.88c-3.49,0.45-7.13-0.31-10.33-1.85 C617.8,450.58,614.95,448.2,613.13,445.19z"/> <path d="M643.9,461.03c1.35,2.49,2.49,5.09,3.48,7.74c1.01,2.65,1.82,5.37,2.51,8.13c0.66,2.76,1.2,5.55,1.54,8.37 c0.16,1.41,0.3,2.82,0.4,4.23c0.06,1.42,0.12,2.83,0.09,4.25c-0.23-1.4-0.41-2.8-0.65-4.18c-0.22-1.39-0.45-2.78-0.71-4.16 c-0.53-2.76-1.1-5.51-1.78-8.23c-0.65-2.73-1.43-5.42-2.23-8.12C645.74,466.36,644.82,463.7,643.9,461.03z"/> <path d="M641.05,401.97c1.52-3.55,2.81-7.13,3.79-10.78c0.96-3.65,1.66-7.36,1.99-11.11c0.37-3.74,0.38-7.51,0.12-11.28 c-0.28-3.77-0.88-7.53-1.7-11.3c1.73,3.46,2.85,7.24,3.47,11.09c0.64,3.86,0.73,7.8,0.38,11.71c-0.39,3.9-1.22,7.76-2.57,11.43 C645.2,395.39,643.4,398.89,641.05,401.97z"/> <g> <path d="M464.54,575.69c-5.86,4.67-12.98,7.79-20.43,9.05c-3.72,0.66-7.54,0.77-11.3,0.47c-1.81-0.16-3.74-0.19-4.89,0.98 c-1.14,1.14-1.17,3.11-0.62,4.72c0.53,1.64,1.72,3.09,3.07,4.24c1.38,1.15,3,2.01,4.72,2.58c3.47,1.15,7.24,1.17,10.92,0.87 c7.38-0.65,14.58-3.36,20.67-7.72c-2.9,2.38-6.18,4.29-9.64,5.77c-3.48,1.44-7.18,2.39-10.93,2.83c-3.74,0.43-7.63,0.4-11.33-0.76 c-1.84-0.59-3.59-1.49-5.1-2.73c-1.49-1.25-2.8-2.79-3.46-4.72c-0.31-0.95-0.45-1.97-0.35-3c0.1-1.02,0.51-2.08,1.28-2.85 c0.77-0.77,1.83-1.16,2.83-1.27c1-0.12,1.98-0.05,2.91,0.03c3.7,0.35,7.41,0.21,11.08-0.3c3.67-0.53,7.29-1.49,10.74-2.89 C458.18,579.65,461.45,577.81,464.54,575.69z"/> <path d="M438.23,621.99c1.09,0.18,2.14,0.43,3.2,0.65c1.05,0.26,2.12,0.47,3.15,0.52c1.03,0.04,2.04-0.1,2.85-0.61 c0.83-0.49,1.48-1.28,1.88-2.17c0.83-1.78,0.44-3.99-0.64-5.71c-1.11-1.74-2.9-3.04-4.89-3.93c2.12,0.46,4.24,1.55,5.62,3.42 c0.69,0.92,1.17,2.01,1.37,3.17c0.19,1.16,0.07,2.41-0.42,3.51c-0.5,1.08-1.31,2.05-2.38,2.64c-1.08,0.6-2.34,0.72-3.46,0.56 c-1.14-0.13-2.19-0.47-3.22-0.86C440.26,622.78,439.23,622.42,438.23,621.99z"/> <path d="M439.97,584.55c0.62-1.5,1.24-2.85,1.74-4.28c0.53-1.42,0.92-2.85,1.41-4.4c0.42,1.58,0.21,3.26-0.33,4.79 C442.22,582.18,441.31,583.6,439.97,584.55z"/> <path d="M454.58,580.46c-0.98-1.23-1.5-2.72-1.77-4.23c-0.24-1.52-0.22-3.1,0.3-4.58c0.38,1.52,0.57,2.95,0.82,4.39 C454.16,577.49,454.45,578.91,454.58,580.46z"/> <path d="M455.31,597.16c2.95,3.63,5.11,7.89,6.55,12.36c1.41,4.48,2.13,9.2,1.82,13.87c-0.6-4.63-1.5-9.14-2.91-13.52 C459.39,605.48,457.5,601.28,455.31,597.16z"/> <path d="M450.23,619.84c0.92-0.68,2.14-0.97,3.32-0.87c1.19,0.09,2.37,0.57,3.3,1.38c0.92,0.82,1.54,1.93,1.77,3.11 c0.24,1.16,0.11,2.41-0.46,3.4c0.1-1.13-0.05-2.19-0.4-3.16c-0.36-0.96-0.92-1.84-1.67-2.49c-0.74-0.67-1.67-1.11-2.67-1.35 C452.42,619.61,451.34,619.6,450.23,619.84z"/> <path d="M465.14,597.57c2.11,2.08,4.63,3.63,7.33,4.68c2.71,1.04,5.57,1.65,8.46,1.85c2.9,0.22,5.82,0.06,8.73-0.24 c1.46-0.15,2.92-0.35,4.37-0.58l4.39-0.65c-1.41,0.45-2.84,0.82-4.28,1.2c-1.44,0.34-2.89,0.64-4.36,0.9 c-2.93,0.51-5.94,0.71-8.94,0.5c-3-0.23-5.98-0.91-8.72-2.18c-1.36-0.64-2.67-1.4-3.86-2.31 C467.1,599.81,466.01,598.77,465.14,597.57z"/> <path d="M463.02,594.11c2.41,0.31,4.71,0.1,6.98-0.4c2.28-0.48,4.52-1.28,6.91-1.78c-2.04,1.33-4.26,2.35-6.67,2.89 c-1.21,0.25-2.45,0.38-3.69,0.28C465.32,595.02,464.08,594.71,463.02,594.11z"/> </g> <path d="M426.38,589.82l-71.79,26.24l2.02,6.24l71.65-28.54C428.26,593.76,426.8,594.22,426.38,589.82z"/> <polygon fill="#FC9783" points="354.6,616.06 349.09,620.83 356.61,622.3 "/> <path fill="#CCCCCC" d="M443.29,614.12c-1.49-0.55-3.24,0.57-3.68,2.1c-0.44,1.52,0.23,3.21,1.36,4.32 c1.26,1.24,3.09,1.87,4.85,1.68C445.33,619.49,444.81,616.44,443.29,614.12z"/> <path fill="#CCCCCC" d="M457.39,628.7c-0.54-2.68-2.03-5.16-4.13-6.92c-2.28,0.82-3.41,3.82-2.26,5.97S455.44,630.15,457.39,628.7z "/> <path fill="#CCCCCC" d="M438.31,584.86c0.31,2.14,0.62,4.28,0.93,6.42c-2.28,0.72-5.03,0.3-7.04-1.01s-3.37-3.56-3.61-5.94 C431.87,584.87,435.03,585.36,438.31,584.86z"/> <g> <path d="M732.78,744.97c4.2,1.36,8.26,3.04,12.28,4.79l3.01,1.37c1,0.5,2.03,1.07,2.85,1.94c1.7,1.73,1.92,4.52,0.74,6.4 c0.75-2.08,0.13-4.44-1.37-5.77c-0.76-0.67-1.69-1.17-2.68-1.59l-3.01-1.3C740.59,749.01,736.62,747.15,732.78,744.97z"/> <path d="M752.58,731.99c-2.05-2.39-4.6-4.26-7.4-5.55c-2.8-1.27-5.84-2.03-8.9-2.17c-3.07-0.16-6.16,0.27-9.14,1.09 c-1.5,0.41-2.96,0.94-4.39,1.56c-1.45,0.59-2.83,1.32-4.21,2.08c1.24-0.98,2.59-1.81,3.97-2.58c1.4-0.74,2.87-1.37,4.37-1.9 c3.01-1.04,6.24-1.53,9.46-1.39c3.21,0.17,6.4,1.01,9.23,2.52c1.41,0.76,2.74,1.66,3.94,2.72 C750.68,729.46,751.75,730.65,752.58,731.99z"/> <path d="M742.78,727.57c-3.94-0.53-7.85-0.34-11.6,0.62c-3.75,0.95-7.28,2.66-10.48,5c2.6-3.03,6.3-5.11,10.2-6.11 C734.81,726.1,739.04,726.16,742.78,727.57z"/> </g> <path fill="#CCCCCC" d="M740.76,752.74c-0.88,0.74-1.6,1.71-1.83,2.83c-0.23,1.12,0.12,2.4,1.03,3.09c0.94,0.71,2.25,0.69,3.4,0.42 c2.17-0.53,4.13-1.88,5.39-3.73c0.49-0.72,0.88-1.62,0.58-2.43c-0.29-0.79-1.13-1.22-1.91-1.55c-1.02-0.43-2.86-1.53-3.93-0.92 c-0.38,0.22-0.63,0.8-0.98,1.09C741.98,751.99,741.31,752.28,740.76,752.74z"/> <path d="M833.09,758.66c1.96,0.01,3.83-0.79,5.31-1.99c1.51-1.2,2.64-2.79,3.43-4.54c1.61-3.49,2.11-7.4,2.94-11.2 c1.57-7.63,3.18-15.24,4.85-22.86c0.91-3.8,2.02-7.59,3.68-11.18c1.67-3.59,3.89-6.86,6.28-9.94c2.39-3.09,4.91-6.06,7.21-9.18 c2.35-3.09,4.39-6.42,5.87-10.02c-1.24,3.7-3.21,7.13-5.42,10.35c-2.22,3.22-4.67,6.25-6.96,9.39c-2.26,3.15-4.47,6.34-6.04,9.85 c-1.58,3.5-2.63,7.24-3.51,11.01l-5.11,22.79c-0.93,3.76-1.52,7.69-3.29,11.26c-0.89,1.76-2.15,3.37-3.75,4.53 C837.02,758.08,835.05,758.79,833.09,758.66z"/> <path d="M930.62,599.3c0.7,0.79,1,1.9,0.91,2.96c-0.1,1.07-0.51,2.1-1.17,2.95c-1.37,1.72-3.59,2.47-5.69,2.71 c-2.14,0.26-4.26-0.07-6.31,0.06c-2.04,0.08-3.98,0.9-5.47,2.24c-1.5,1.35-2.57,3.13-3.25,5.04c-0.7,1.91-0.94,3.98-0.84,5.99 c0.34,4.07,2.13,7.93,4.24,11.49c2.11,3.58,4.49,7.09,6.53,10.79c2.05,3.68,3.97,7.45,5.62,11.33c3.36,7.73,5.9,15.81,7.54,24.06 c-1.06-4.07-2.25-8.1-3.66-12.04c-1.37-3.96-2.93-7.85-4.69-11.66c-1.77-3.8-3.64-7.54-5.72-11.17c-2.05-3.65-4.43-7.09-6.61-10.72 c-2.12-3.64-3.97-7.64-4.29-12c-0.09-2.17,0.18-4.36,0.95-6.39c0.35-1.03,0.87-1.99,1.44-2.92c0.63-0.89,1.32-1.75,2.16-2.45 c1.66-1.43,3.85-2.27,6.01-2.3c2.16-0.07,4.23,0.3,6.29,0.11c2.03-0.15,4.15-0.78,5.51-2.34c0.66-0.78,1.1-1.76,1.23-2.78 C931.5,601.23,931.28,600.13,930.62,599.3z"/> <path d="M895.44,815.42c4.25-5.28,8.59-10.48,12.94-15.67c4.33-5.2,8.88-10.24,12.93-15.63c4.15-5.3,7.55-11.16,9.98-17.45 c2.46-6.26,3.95-12.91,4.53-19.66c-0.04,3.39-0.42,6.78-1.02,10.12c-0.62,3.34-1.55,6.63-2.69,9.84 c-2.28,6.43-5.77,12.42-9.89,17.83c-4.17,5.38-8.69,10.42-13.18,15.51C904.55,805.39,900.04,810.45,895.44,815.42z"/> <path d="M925.87,786.54c-1.23,2.54-2.55,5.01-3.9,7.48c-1.33,2.47-2.74,4.9-4.15,7.32c-1.43,2.41-2.87,4.82-4.37,7.19 c-1.51,2.37-3.01,4.74-4.62,7.05l-0.14,0.2l0.04-0.23l0.12-0.61l-0.02,0.62l-0.09-0.03c1.24-2.52,2.58-4.99,3.92-7.46 c1.35-2.46,2.75-4.89,4.18-7.31c1.44-2.41,2.88-4.82,4.39-7.19C922.73,791.2,924.25,788.84,925.87,786.54z"/> <path d="M955.76,605.07c0.34,4.73-0.88,9.41-2.48,13.83c-1.6,4.44-3.56,8.73-4.96,13.21c-2.85,8.93-2.8,18.6-6.14,27.57 c-1.57,4.47-3.58,8.75-5.35,13.1c-1.83,4.33-3.5,8.73-5.15,13.13c-3.23,8.83-6.13,17.78-8.79,26.81 c-2.68,9.02-5.14,18.1-7.46,27.23l-3.41,13.7c-1.11,4.58-2.34,9.16-3.96,13.6c-3.16,8.91-7.24,17.47-12.05,25.58 c-4.81,8.12-10.37,15.77-16.39,23c5.88-7.35,11.28-15.1,15.91-23.28c4.69-8.14,8.66-16.71,11.7-25.59 c1.55-4.44,2.72-8.97,3.83-13.54l3.36-13.73c2.3-9.14,4.72-18.25,7.38-27.29c2.7-9.03,5.64-18,8.91-26.84 c1.67-4.41,3.36-8.81,5.21-13.15c1.79-4.37,3.83-8.61,5.44-13.01c3.39-8.76,3.45-18.42,6.44-27.44c1.5-4.49,3.55-8.74,5.23-13.14 C954.7,614.43,956.01,609.81,955.76,605.07z"/> <polygon points="350.03,752.42 363.64,751.56 459.91,757.88 459.91,761.55 444.31,765.77 332.03,765.77 "/> <circle fill="#CCCCCC" cx="262.79" cy="665.24" r="22.31"/> </g> </svg>