<?xml version="1.0" standalone="no"?>
<!DOCTYPE svg PUBLIC "-//W3C//DTD SVG 20010904//EN"
 "http://www.w3.org/TR/2001/REC-SVG-20010904/DTD/svg10.dtd">
<svg version="1.0" xmlns="http://www.w3.org/2000/svg"
 width="774.000000pt" height="516.000000pt" viewBox="0 0 774.000000 516.000000"
 preserveAspectRatio="xMidYMid meet">
<metadata>
Created by potrace 1.16, written by Peter Selinger 2001-2019
</metadata>
<g transform="translate(0.000000,516.000000) scale(0.100000,-0.100000)"
fill="#000000" stroke="none">
<path d="M4863 4547 c2 -7 14 -14 26 -15 28 -4 20 13 -9 21 -14 3 -20 1 -17
-6z"/>
<path d="M4970 4459 l0 -44 39 0 c34 0 38 2 31 19 -4 11 -21 31 -38 44 l-32
25 0 -44z"/>
<path d="M5782 4435 c-32 -35 -73 -91 -90 -123 l-31 -57 41 -52 c44 -58 148
-141 279 -226 104 -67 241 -137 268 -137 11 0 33 11 50 26 41 34 111 143 111
173 0 29 -236 268 -345 349 -71 53 -180 112 -208 112 -8 0 -42 -29 -75 -65z
m198 -70 c33 -17 60 -61 60 -99 0 -91 -92 -156 -173 -122 -45 18 -67 51 -67
99 0 101 96 166 180 122z m189 -201 c29 -37 26 -70 -8 -105 -53 -53 -131 -24
-131 48 0 75 95 113 139 57z"/>
<path d="M5854 4326 c-45 -45 -47 -95 -5 -137 51 -51 137 -27 161 46 34 102
-79 168 -156 91z m16 -16 c-6 -11 -13 -20 -16 -20 -2 0 0 9 6 20 6 11 13 20
16 20 2 0 0 -9 -6 -20z m-16 -65 c5 -22 4 -26 -4 -15 -5 8 -10 24 -10 34 0 26
6 18 14 -19z"/>
<path d="M6065 4155 c-44 -43 -21 -105 39 -105 40 0 66 26 66 67 0 60 -61 82
-105 38z m17 -7 c-5 -7 -12 -24 -15 -38 l-4 -25 -2 26 c0 14 4 30 11 37 16 16
23 15 10 0z"/>
<path d="M5028 4383 l-58 -4 0 -37 c0 -38 0 -38 36 -34 73 9 111 -72 58 -124
-21 -22 -31 -25 -60 -20 l-34 7 0 -46 0 -45 48 0 c58 0 74 -13 61 -47 -12 -32
-4 -43 31 -43 35 0 45 13 30 39 -14 27 -2 51 26 51 21 0 24 4 24 40 0 33 -4
42 -24 52 -37 16 -51 59 -33 95 14 26 14 31 -10 76 -15 26 -29 46 -32 45 -3
-1 -32 -3 -63 -5z"/>
<path d="M4668 4328 l-3 -53 -44 0 c-51 0 -74 -22 -55 -52 9 -14 23 -17 55
-15 51 3 59 -6 59 -75 l0 -53 33 0 c31 0 33 2 29 28 -5 36 31 82 64 82 38 0
77 -44 72 -81 -4 -27 -2 -29 29 -29 l33 0 0 60 c0 68 13 81 57 61 21 -10 29
-9 44 5 40 36 16 69 -48 69 l-48 0 -3 53 c-3 50 -4 52 -33 52 -26 0 -29 -3
-29 -33 0 -65 -68 -90 -115 -42 -14 13 -25 36 -25 50 0 22 -4 25 -34 25 l-35
0 -3 -52z"/>
<path d="M4491 4146 c-8 -9 -10 -28 -6 -50 6 -32 5 -36 -19 -42 -14 -3 -42 -4
-61 -2 l-35 4 0 -51 c0 -62 -11 -74 -60 -68 -32 5 -39 2 -45 -15 -3 -12 -1
-30 5 -41 9 -17 14 -18 40 -9 50 17 60 6 60 -62 l0 -60 59 0 c63 0 80 -14 61
-50 -19 -35 -12 -50 21 -50 31 0 32 0 27 44 -7 55 4 66 59 66 l43 0 0 44 c0
52 10 61 65 61 39 0 40 1 40 35 l0 35 -44 -3 c-53 -3 -61 6 -61 71 l0 47 -44
0 c-51 0 -59 8 -60 64 -1 44 -22 59 -45 32z"/>
<path d="M4793 4152 c-16 -11 -21 -35 -12 -54 17 -32 0 -48 -52 -48 l-49 0 0
-40 c0 -39 1 -40 35 -40 38 0 75 -31 75 -62 0 -30 -28 -76 -50 -83 -11 -3 -29
-3 -40 0 -17 6 -20 2 -20 -29 0 -34 2 -36 35 -36 32 0 35 2 35 29 0 33 30 61
66 61 21 0 21 2 11 30 -9 25 -9 36 3 57 23 40 44 50 80 36 l30 -11 0 43 0 44
-52 3 -53 3 3 42 c3 32 0 44 -15 52 -11 5 -24 7 -30 3z"/>
<path d="M4110 4034 c0 -32 10 -54 24 -54 19 0 56 -44 56 -66 0 -10 -7 -32
-15 -47 -15 -30 -13 -30 42 -10 7 3 24 -7 39 -22 21 -21 25 -33 20 -56 -5 -27
-3 -29 24 -29 29 0 30 2 30 45 0 44 -1 44 -29 39 -22 -5 -32 -1 -50 21 -11 15
-21 40 -21 56 0 36 44 73 80 65 24 -4 25 -3 22 35 -3 24 -9 39 -17 39 -7 0
-19 2 -27 5 -9 4 -13 -5 -13 -31 0 -28 -6 -41 -27 -57 -24 -18 -30 -18 -58 -7
-37 15 -53 41 -45 73 5 18 2 23 -14 23 -15 0 -21 -7 -21 -22z"/>
<path d="M4970 3990 c0 -69 -11 -80 -57 -56 -31 15 -46 11 -56 -16 -11 -30 18
-53 65 -53 l43 0 3 -52 3 -53 35 0 c32 0 34 2 34 34 0 44 24 68 62 64 33 -3
34 -3 24 30 -5 14 -2 31 7 45 14 22 13 22 -23 22 -52 0 -73 20 -67 62 6 33 5
33 -34 33 l-39 0 0 -60z"/>
<path d="M5175 4040 c3 -5 8 -10 11 -10 2 0 4 5 4 10 0 6 -5 10 -11 10 -5 0
-7 -4 -4 -10z"/>
<path d="M4908 3833 c-19 -3 -28 -10 -28 -23 0 -10 -3 -25 -6 -34 -5 -13 1
-16 30 -16 35 0 36 1 36 40 0 22 -1 39 -2 39 -2 -1 -15 -4 -30 -6z"/>
<path d="M5077 3823 c-10 -9 -9 -53 1 -53 12 0 33 40 27 50 -7 12 -19 13 -28
3z"/>
<path d="M4185 3810 c-10 -16 85 -177 97 -165 3 3 16 1 29 -4 23 -8 24 -7 24
35 l0 44 -42 0 c-45 0 -70 23 -53 50 5 8 4 22 -1 32 -10 19 -44 24 -54 8z"/>
<path d="M4576 3692 c5 -34 3 -42 -21 -60 -33 -26 -53 -27 -84 -6 -20 14 -22
23 -18 55 l5 39 -44 0 -44 0 0 -54 c0 -58 -20 -90 -42 -68 -7 7 -16 12 -21 12
-10 0 32 -62 50 -73 7 -4 13 -24 13 -43 0 -54 15 -74 55 -74 33 0 34 1 29 30
-8 36 7 56 47 65 20 5 38 1 55 -10 21 -14 25 -23 22 -51 -4 -33 -3 -34 34 -34
l37 0 3 58 3 57 45 0 45 0 3 39 3 39 -44 -6 c-56 -8 -67 3 -67 70 l0 53 -35 0
-35 0 6 -38z"/>
<path d="M4970 3675 l0 -56 32 38 c68 81 67 73 15 73 l-47 0 0 -55z"/>
<path d="M4872 3608 c-19 -19 -15 -66 7 -78 16 -8 22 -4 40 25 l20 35 -22 15
c-26 18 -30 18 -45 3z"/>
<path d="M4485 3470 c-3 -5 -1 -19 5 -30 16 -31 -4 -50 -52 -50 l-39 0 27 -49
c14 -27 44 -64 65 -81 36 -29 39 -29 39 -10 0 11 12 32 26 47 21 21 32 24 60
20 34 -6 34 -6 34 33 l0 39 -52 3 -53 3 3 43 c2 41 1 42 -27 42 -17 0 -33 -4
-36 -10z"/>
<path d="M4678 3333 l-3 -58 -50 0 c-49 0 -50 -1 -50 -30 0 -29 1 -30 50 -31
55 -1 102 14 142 46 19 14 21 20 10 20 -9 0 -24 11 -33 25 -14 21 -15 31 -5
51 15 34 15 34 -24 34 l-34 0 -3 -57z"/>
<path d="M5389 3281 c-21 -22 -29 -39 -29 -66 0 -32 4 -38 35 -51 19 -7 48
-14 64 -14 17 0 42 -10 57 -24 l28 -23 -30 -78 c-35 -94 -52 -108 -91 -77 -48
38 -73 48 -83 32 -14 -23 -33 -141 -24 -150 5 -5 44 -12 87 -16 l77 -7 48 102
c47 102 69 124 97 101 12 -10 18 -10 30 0 18 15 19 43 3 70 -10 16 -10 24 0
40 29 47 -3 94 -64 92 -42 -2 -84 23 -84 49 0 22 -37 49 -68 49 -13 0 -37 -13
-53 -29z"/>
<path d="M3237 3282 c-10 -10 -17 -24 -17 -30 0 -7 -11 -12 -24 -12 -13 0 -36
-10 -51 -22 -23 -18 -26 -27 -22 -59 3 -26 0 -42 -9 -50 -22 -18 -13 -53 14
-57 13 -2 44 -19 69 -38 49 -38 84 -45 76 -16 -2 10 -14 22 -26 27 -12 6 -23
18 -25 29 -3 15 1 18 23 14 17 -4 25 -1 22 6 -20 54 -21 54 39 67 109 24 152
82 105 140 -19 23 -21 23 -49 8 -24 -14 -31 -14 -47 -3 -26 19 -59 17 -78 -4z"/>
<path d="M4784 3239 c-35 -39 -75 -53 -154 -53 -61 -1 -82 3 -114 22 -25 15
-48 21 -63 17 -23 -5 -31 -29 -13 -40 6 -4 5 -13 -2 -25 -16 -24 -9 -31 44
-41 80 -15 216 -8 301 18 18 5 18 6 -2 19 -16 12 -32 12 -93 3 -40 -6 -107 -9
-148 -6 -71 5 -73 4 -40 -9 l35 -13 -35 2 c-27 2 -35 6 -36 22 -1 19 4 20 108
17 108 -3 223 12 213 28 -3 4 4 6 15 3 12 -3 29 2 41 13 19 17 19 19 3 31 -25
18 -38 16 -60 -8z m50 -5 c3 -8 2 -12 -4 -9 -6 3 -10 10 -10 16 0 14 7 11 14
-7z m-334 -41 c0 -13 -3 -14 -11 -6 -6 6 -18 9 -25 6 -8 -3 -14 -1 -14 4 0 5
11 10 25 11 18 1 25 -3 25 -15z m236 -51 c-8 -7 -74 -8 -70 0 3 4 20 7 39 6
19 -1 33 -3 31 -6z m-163 -9 c-7 -2 -19 -2 -25 0 -7 3 -2 5 12 5 14 0 19 -2
13 -5z m57 -1 c0 -5 -7 -9 -15 -9 -8 0 -12 4 -9 9 3 4 9 8 15 8 5 0 9 -4 9 -8z"/>
<path d="M4801 3185 c-34 -12 -34 -13 -13 -24 26 -14 62 -6 62 14 0 21 -11 23
-49 10z"/>
<path d="M4760 3118 c-61 -15 -100 -18 -202 -15 -99 3 -128 1 -128 -9 0 -7 4
-16 10 -19 6 -4 5 -13 -3 -26 -10 -16 -9 -21 3 -29 8 -6 24 -9 35 -9 11 1 28
-2 38 -6 19 -8 177 0 229 11 17 4 25 11 21 18 -3 6 -3 8 2 4 4 -4 15 -2 23 5
13 9 14 9 8 0 -10 -17 15 -17 39 1 11 7 16 20 12 29 -5 13 -12 14 -41 5 -19
-6 -33 -14 -31 -18 2 -4 -7 -5 -20 -2 -15 2 -25 0 -25 -7 0 -6 5 -11 12 -11
21 0 1 -11 -29 -16 -15 -3 -65 -7 -109 -11 -77 -5 -82 -4 -89 16 -4 13 -15 21
-29 21 -15 0 -27 9 -35 28 -10 25 -10 26 4 8 12 -16 18 -17 27 -8 15 15 74 16
84 1 4 -7 -7 -10 -34 -8 -23 2 -45 -1 -49 -5 -12 -13 257 1 302 15 45 14 77
37 69 50 -6 11 -1 11 -94 -13z m-65 -38 c4 -6 -13 -10 -44 -10 -28 0 -51 5
-51 10 0 6 20 10 44 10 25 0 48 -4 51 -10z m-215 -54 c0 -10 -30 0 -34 11 -4
11 -1 11 14 3 11 -6 20 -12 20 -14z"/>
<path d="M4593 3043 c-35 -2 -63 -9 -63 -14 0 -7 20 -8 57 -3 32 4 77 7 100 8
23 0 39 4 37 8 -3 4 -20 7 -37 6 -18 -1 -60 -3 -94 -5z"/>
<path d="M4782 3023 c-3 -19 -105 -35 -207 -31 -91 3 -95 2 -95 -18 0 -12 10
-34 22 -49 44 -56 138 -71 214 -35 54 27 76 60 71 108 -2 20 -4 32 -5 25z
m-13 -47 c9 -11 6 -18 -15 -35 -15 -12 -23 -21 -18 -21 5 0 -4 -7 -20 -15 -26
-14 -31 -14 -48 2 -16 14 -18 15 -13 1 9 -23 -8 -30 -55 -19 -52 12 -53 12
-40 45 6 18 6 25 0 21 -6 -3 -10 0 -10 7 0 10 13 13 53 11 28 -2 70 0 92 6 56
13 61 13 74 -3z m-232 -11 c0 -8 -5 -12 -11 -9 -6 3 -4 0 5 -8 9 -7 14 -19 11
-26 -3 -10 -7 -10 -18 -1 -17 14 -18 46 -1 52 6 3 12 6 13 6 0 1 1 -6 1 -14z"/>
<path d="M4680 2919 c0 -11 5 -17 10 -14 6 4 8 10 5 15 -3 5 3 11 12 13 14 4
13 5 -4 6 -17 1 -23 -5 -23 -20z"/>
<path d="M4610 2906 c0 -2 7 -7 16 -10 8 -3 12 -2 9 4 -6 10 -25 14 -25 6z"/>
<path d="M3625 2839 c-16 -6 -84 -13 -150 -16 -97 -5 -125 -10 -146 -26 -36
-26 -108 -33 -145 -14 -30 16 -82 12 -173 -13 -60 -16 -185 -141 -229 -229
-18 -35 -32 -69 -32 -75 0 -6 30 -19 68 -28 37 -9 77 -20 90 -24 16 -4 22 -2
22 9 0 8 7 20 16 28 14 12 15 6 12 -60 -3 -86 8 -101 83 -101 63 0 179 36 179
56 0 8 11 26 24 39 23 23 24 23 85 8 61 -15 75 -28 45 -40 -12 -4 -13 -7 -3
-14 11 -6 10 -9 -3 -14 -9 -4 -14 -13 -11 -21 3 -9 -2 -14 -17 -14 -12 0 -33
-9 -47 -20 -14 -11 -36 -20 -50 -20 -13 0 -45 -11 -71 -24 -58 -29 -146 -56
-185 -56 l-29 0 4 -132 c2 -73 -1 -183 -6 -244 l-9 -112 47 5 c38 5 53 1 86
-21 22 -14 40 -27 40 -29 0 -1 -75 -3 -166 -4 -94 -1 -171 -6 -176 -11 -28
-28 9 -32 278 -32 l274 0 0 29 c0 16 43 123 96 236 88 192 102 235 74 235 -6
0 -41 -64 -78 -142 -37 -79 -73 -154 -80 -168 -18 -37 -6 196 15 278 l15 62
74 0 73 0 29 43 c74 108 246 442 237 457 -4 6 -21 10 -38 11 -31 0 -31 1 -7
10 13 6 25 11 27 13 1 1 -15 38 -37 81 -22 44 -40 88 -40 97 0 20 -18 22 -65
7z m68 -246 c-7 -2 -21 -2 -30 0 -10 3 -4 5 12 5 17 0 24 -2 18 -5z m-150 -10
c-13 -2 -35 -2 -50 0 -16 2 -5 4 22 4 28 0 40 -2 28 -4z m-128 -12 c-17 -3
-35 -16 -42 -31 -7 -14 -13 -19 -13 -11 0 24 32 51 59 50 25 -1 25 -2 -4 -8z
m155 -66 c18 -21 3 -55 -24 -55 -33 0 -50 23 -36 49 12 24 42 27 60 6z m-283
-391 c-3 -3 -12 -4 -19 -1 -8 3 -5 6 6 6 11 1 17 -2 13 -5z m34 -109 c5 4 8
-6 8 -22 -1 -17 -3 -21 -6 -10 -2 9 -9 15 -14 12 -5 -4 -9 -2 -9 4 0 5 -3 18
-6 28 -5 17 -5 17 6 0 6 -9 15 -15 21 -12z m-324 -7 c-3 -8 -6 -5 -6 6 -1 11
2 17 5 13 3 -3 4 -12 1 -19z m263 12 c0 -5 7 -10 16 -10 20 0 13 -24 -8 -28
-10 -2 -17 6 -20 23 -3 14 -1 25 3 25 5 0 9 -4 9 -10z m-46 -25 c-5 -11 -9
-12 -19 -2 -9 8 -10 14 -2 19 16 9 27 0 21 -17z m-190 -48 c7 -6 6 -7 -4 -4
-8 2 -16 12 -17 23 -2 13 -1 15 4 4 3 -8 11 -19 17 -23z m112 18 c18 -14 18
-14 -6 -16 l-25 -1 25 -8 c19 -6 12 -8 -30 -9 -39 0 -51 2 -40 9 12 8 12 10
-5 11 -16 0 -14 3 10 14 39 18 47 18 71 0z m159 -5 c-11 -5 -29 -9 -40 -9 -17
-1 -17 1 -5 9 8 5 26 9 40 9 23 0 23 -1 5 -9z m-87 -17 c-10 -2 -26 -2 -35 0
-10 3 -2 5 17 5 19 0 27 -2 18 -5z"/>
<path d="M5630 2804 c0 -3 4 -14 10 -24 8 -15 4 -22 -24 -39 -19 -12 -51 -22
-72 -24 -35 -2 -39 1 -47 31 -12 38 -16 39 -49 9 -22 -20 -31 -53 -72 -267
-26 -135 -50 -252 -52 -260 -2 -8 23 -48 55 -88 l60 -72 16 77 c23 107 31 132
38 113 4 -8 27 -96 52 -195 25 -99 50 -198 57 -220 l12 -40 7 40 c14 78 22
212 12 218 -6 4 9 92 37 224 35 158 45 223 38 236 -5 10 -7 21 -4 24 3 3 10
-6 17 -20 9 -20 7 -44 -9 -118 -81 -368 -77 -343 -60 -333 6 4 8 3 5 -3 -8
-13 25 -23 79 -23 35 0 43 4 47 23 3 12 27 121 52 242 26 121 52 225 57 230 6
6 7 1 4 -15 -4 -14 -26 -122 -51 -240 -25 -118 -51 -231 -59 -250 -13 -32 -47
-170 -76 -307 l-12 -53 -286 -3 -287 -3 315 -1 315 0 -1 -41 c0 -31 4 -42 17
-45 17 -5 17 -9 6 -48 l-13 -44 -80 -3 -80 -3 -74 -222 -73 -221 18 -51 c9
-27 27 -72 39 -98 l21 -48 174 360 c96 199 176 359 178 357 8 -8 32 -256 43
-451 7 -113 10 -259 6 -336 -8 -154 -10 -149 69 -149 52 0 47 -9 75 160 63
394 89 741 69 938 -7 70 -13 141 -13 159 0 28 -1 30 -12 15 -9 -13 -27 -17
-68 -16 -31 0 -51 -3 -46 -6 6 -4 -38 -14 -97 -24 -59 -10 -120 -20 -135 -23
-24 -5 -28 -2 -28 16 0 11 4 21 8 21 4 0 9 19 11 42 3 50 7 59 26 51 18 -6 20
8 4 24 -9 9 -9 19 1 42 7 17 16 28 20 26 5 -3 11 4 15 15 8 26 25 26 25 0 0
-11 -3 -20 -7 -20 -5 0 -9 -17 -11 -37 -1 -20 -7 -42 -12 -48 -8 -9 -6 -14 6
-19 23 -9 23 -9 22 24 -1 37 7 47 27 30 12 -10 15 -10 15 2 0 19 42 38 84 38
55 0 95 11 100 29 3 9 4 4 2 -12 -2 -15 0 -30 4 -32 9 -6 25 -84 21 -100 -1
-5 3 -5 10 2 24 24 -81 354 -182 572 -24 52 -39 99 -39 123 0 79 -54 136 -161
169 -59 19 -109 25 -109 13z m-159 -410 c20 -94 22 -111 13 -101 -6 6 -43 163
-44 186 0 34 13 -4 31 -85z m545 -148 c0 -14 -5 -21 -9 -17 -4 4 -5 15 -1 24
9 24 12 21 10 -7z m2 -77 c-3 -8 -7 -3 -11 10 -4 17 -3 21 5 13 5 -5 8 -16 6
-23z m41 -48 c-15 -5 -22 6 -14 19 6 9 10 9 16 -1 5 -8 4 -15 -2 -18z m-59 -3
c0 -6 -7 -7 -16 -4 -9 3 -18 6 -20 6 -3 0 -3 4 1 10 7 11 35 2 35 -12z m-313
-6 c-13 -15 -14 -21 -4 -32 10 -12 9 -12 -5 -1 -14 10 -15 16 -5 32 6 10 16
19 21 19 5 0 2 -8 -7 -18z m-84 -15 c4 3 7 1 7 -5 0 -17 -16 -15 -31 6 -12 15
-12 16 2 5 9 -7 19 -10 22 -6z m162 -8 c-4 -5 -14 -8 -23 -8 -15 1 -15 2 1 6
9 2 14 9 11 15 -4 7 -2 8 5 4 6 -4 9 -12 6 -17z m161 -14 c0 -25 -3 -31 -9
-20 -4 8 -12 13 -18 10 -15 -10 -10 12 7 29 20 21 20 21 20 -19z m-355 1 c5 3
8 0 7 -8 -2 -8 6 -12 22 -11 14 2 19 0 10 -4 -22 -9 -30 -25 -24 -48 4 -16 3
-17 -5 -5 -6 8 -8 22 -6 31 3 9 -1 22 -10 29 -8 7 -14 20 -14 29 1 13 2 13 6
-2 2 -9 9 -15 14 -11z m59 -68 c0 -16 -3 -19 -11 -11 -6 6 -8 16 -5 22 11 17
16 13 16 -11z m-20 -38 c0 -5 -4 -10 -10 -10 -5 0 -10 5 -10 10 0 6 5 10 10
10 6 0 10 -4 10 -10z m-1 -57 c0 -35 -1 -36 -10 -14 -5 14 -7 31 -5 38 10 24
16 13 15 -24z"/>
<path d="M4467 2709 c-9 -6 -39 -12 -67 -14 -61 -4 -103 -32 -124 -85 -22 -55
-20 -67 13 -101 36 -36 61 -38 61 -5 0 28 33 56 67 56 13 0 40 -15 61 -34 l38
-35 11 30 c22 58 63 25 63 -52 0 -68 68 -183 142 -239 60 -45 156 -141 216
-214 l31 -40 36 17 c53 25 69 95 29 128 -20 17 -17 26 11 33 44 11 65 41 65
94 0 79 -48 122 -135 122 -42 0 -58 11 -35 25 26 16 3 21 -84 21 -52 -1 -97 2
-101 6 -15 14 19 51 68 74 43 21 47 24 20 20 -29 -5 -32 -2 -39 26 -11 52
-109 143 -174 162 -61 18 -146 21 -173 5z"/>
<path d="M2543 2646 c-16 -14 -49 -32 -74 -42 -64 -25 -109 -61 -115 -94 -4
-16 -14 -30 -25 -33 -29 -8 -24 -49 10 -81 16 -16 27 -34 24 -41 -6 -16 27
-35 61 -35 33 0 33 12 1 44 -29 29 -32 44 -9 53 11 4 24 -3 36 -18 17 -22 18
-22 9 -2 -23 46 -14 61 52 94 34 17 72 40 85 52 30 28 29 77 -2 106 l-23 22
-30 -25z"/>
<path d="M3640 2095 c-9 -11 6 -59 80 -247 51 -128 97 -239 102 -246 8 -9 114
-12 487 -10 468 3 476 3 476 23 0 19 -8 20 -178 25 l-178 5 -99 210 c-54 115
-108 220 -120 232 -22 23 -25 23 -290 23 -222 0 -270 -2 -280 -15z m354 -197
c21 -29 21 -87 1 -95 -35 -13 -76 59 -55 97 14 26 35 25 54 -2z"/>
<path d="M5807 2028 c-5 -16 3 -48 12 -48 4 0 8 14 8 30 0 30 -12 41 -20 18z"/>
<path d="M5910 1910 c0 -5 7 -7 15 -4 8 4 15 8 15 10 0 2 -7 4 -15 4 -8 0 -15
-4 -15 -10z"/>
<path d="M6083 1905 c0 -8 4 -12 9 -9 5 3 6 10 3 15 -9 13 -12 11 -12 -6z"/>
<path d="M2949 1483 c-6 -54 9 -333 27 -498 l5 -50 -80 135 c-64 108 -81 131
-87 115 -4 -11 -13 -35 -21 -54 -13 -33 -11 -41 39 -169 49 -123 59 -140 121
-208 68 -73 68 -73 58 -111 -21 -74 -18 -79 55 -91 l66 -11 94 76 c52 41 94
79 94 85 0 5 4 7 9 3 5 -3 16 3 23 12 7 10 20 18 28 18 17 0 17 0 -5 140 -8
55 -20 179 -26 275 -5 96 -13 212 -15 258 l-6 82 -89 0 c-65 0 -89 -3 -89 -12
0 -71 76 -481 119 -646 l19 -73 -33 -14 c-19 -7 -63 -41 -99 -74 -36 -34 -70
-61 -75 -61 -5 0 -14 14 -21 30 -7 17 -17 30 -24 30 -6 0 5 8 24 19 35 18 35
19 37 92 7 216 24 583 29 642 l7 67 -92 0 c-50 0 -91 -3 -92 -7z"/>
<path d="M4245 1471 c11 -11 74 -65 139 -120 l120 -101 227 0 c320 0 373 14
372 102 -1 24 -11 65 -23 91 l-22 47 -416 0 c-411 0 -416 0 -397 -19z"/>
<path d="M1934 1457 c-3 -10 -4 -21 -1 -23 3 -3 49 -9 103 -15 118 -11 133
-21 141 -101 l6 -55 75 -7 c41 -3 116 -6 166 -7 50 0 113 -4 140 -7 47 -7 49
-8 68 -57 20 -51 20 -67 3 -305 -3 -36 -2 -58 1 -50 4 8 28 72 55 141 l49 125
-66 170 c-36 93 -67 170 -68 171 0 0 -59 9 -131 19 -87 12 -197 18 -333 18
-187 1 -203 0 -208 -17z"/>
<path d="M2652 1422 c2 -5 25 -66 52 -135 28 -70 53 -127 57 -127 13 0 49 118
49 162 0 59 -14 75 -85 93 -68 17 -78 18 -73 7z"/>
<path d="M2687 863 l-65 -168 26 -6 c48 -10 57 3 85 124 15 63 27 122 27 131
0 22 8 20 31 -6 19 -22 19 -21 -1 30 -11 29 -20 55 -20 57 0 3 -4 5 -9 5 -4 0
-38 -75 -74 -167z"/>
<path d="M5396 859 c-28 -92 -34 -124 -26 -134 12 -14 78 -40 84 -33 2 1 16
27 30 57 l27 53 -32 82 c-18 44 -35 84 -39 89 -3 4 -23 -47 -44 -114z"/>
<path d="M4453 720 c-12 -50 -27 -98 -34 -106 -8 -10 -28 -14 -58 -13 -43 2
-91 -16 -91 -33 0 -13 49 -21 107 -16 69 6 80 18 123 130 36 93 36 122 0 126
-24 3 -26 -2 -47 -88z"/>
<path d="M3394 679 c-4 -6 -20 -8 -39 -5 -34 7 -34 6 -41 -40 -5 -38 -3 -50 9
-59 17 -12 301 -30 318 -19 5 3 6 10 3 16 -5 8 -228 118 -240 118 -1 0 -6 -5
-10 -11z"/>
<path d="M2685 650 c-4 -7 -23 -10 -46 -8 -34 3 -40 0 -47 -22 -17 -48 -12
-50 159 -50 178 0 190 6 122 57 -30 23 -48 28 -108 31 -49 3 -75 0 -80 -8z"/>
<path d="M5277 638 c-26 -9 -42 -35 -61 -96 -7 -21 -5 -22 76 -21 106 1 132 9
136 38 6 38 -6 71 -23 65 -8 -4 -26 1 -40 10 -27 18 -47 19 -88 4z"/>
<path d="M3965 613 c-22 -8 -80 -17 -129 -18 -84 -4 -91 -6 -120 -34 l-31 -31
65 0 c36 0 110 7 165 15 55 8 103 15 108 15 9 0 9 32 1 54 -7 18 -6 18 -59 -1z"/>
<path d="M5149 575 c-42 -32 -43 -49 -4 -53 28 -3 32 0 41 38 6 22 8 40 5 40
-4 0 -23 -11 -42 -25z"/>
<path d="M5909 518 c-16 -23 -29 -51 -29 -64 0 -21 5 -23 77 -26 89 -4 106 6
93 51 -10 37 -30 74 -36 68 -3 -3 -21 -1 -40 3 -33 8 -37 6 -65 -32z"/>
</g>
</svg>
